<svg class="animated" id="freepik_stories-astronaut-suit" xmlns="http://www.w3.org/2000/svg" viewBox="0 0 500 500" version="1.1" xmlns:xlink="http://www.w3.org/1999/xlink" xmlns:svgjs="http://svgjs.com/svgjs"><style>svg#freepik_stories-astronaut-suit:not(.animated) .animable {opacity: 0;}svg#freepik_stories-astronaut-suit.animated #freepik--Background--inject-4 {animation: 6s Infinite  linear floating;animation-delay: 0s;}svg#freepik_stories-astronaut-suit.animated #freepik--Shadow--inject-4 {animation: 6s Infinite  linear floating;animation-delay: 0s;}svg#freepik_stories-astronaut-suit.animated #freepik--Stars--inject-4 {animation: 6s Infinite  linear floating;animation-delay: 0s;}svg#freepik_stories-astronaut-suit.animated #freepik--Character--inject-4 {animation: 6s Infinite  linear floating;animation-delay: 0s;}            @keyframes floating {                0% {                    opacity: 1;                    transform: translateY(0px);                }                50% {                    transform: translateY(-10px);                }                100% {                    opacity: 1;                    transform: translateY(0px);                }            }        </style><g id="freepik--Floor--inject-4" class="animable" style="transform-origin: 249.998px 364.92px;"><path id="freepik--floor--inject-4" d="M100.68,278.71c-82.47,47.61-82.47,124.8,0,172.42s216.18,47.61,298.64,0,82.47-124.81,0-172.42S183.14,231.09,100.68,278.71Z" style="fill: rgb(245, 245, 245); transform-origin: 249.998px 364.92px;" class="animable"></path><g id="freepik--Crater--inject-4" class="animable" style="transform-origin: 392.388px 366.537px;"><g id="elgaz92b92zzb"><ellipse cx="394.01" cy="361.1" rx="15.84" ry="27.44" style="fill: rgb(240, 240, 240); transform-origin: 394.01px 361.1px; transform: rotate(-89.18deg);" class="animable"></ellipse></g><g id="eltwkjhtl7ho"><ellipse cx="394.01" cy="361.1" rx="13.24" ry="25.22" style="fill: rgb(224, 224, 224); transform-origin: 394.01px 361.1px; transform: rotate(-89.18deg);" class="animable"></ellipse></g><g id="elm9tswdf1y2"><path d="M376.15,356.53c-3.66,1.85-6,4.17-7,6.61.85,2.57,3.13,5,6.86,7.07,9.77,5.31,25.73,5.54,35.66.51,3.66-1.85,6-4.17,7-6.61-.85-2.57-3.13-5-6.86-7.07C402,351.73,386.07,351.5,376.15,356.53Z" style="opacity: 0.1; transform-origin: 393.91px 363.625px;" class="animable"></path></g><path d="M373.86,348c-5.35.75-9.82,5.74-11.42,10.7-.5,1.58-.77,3.22-1.25,4.81a19.59,19.59,0,0,1-1.67,3.95A20,20,0,0,1,357,371a30.59,30.59,0,0,0-2.94,3c-.25.38.24,1.09.68.92A9.46,9.46,0,0,0,358,372.4a21,21,0,0,0,2.63-3.46,29.17,29.17,0,0,0,3-8.36,18.82,18.82,0,0,1,3.65-7.18,24.63,24.63,0,0,1,6.52-5.22S374,348,373.86,348Z" style="fill: rgb(224, 224, 224); transform-origin: 363.951px 361.473px;" id="eltsylwbhf4mj" class="animable"></path><path d="M430.73,371.2c-.46-1-1.5-1.56-2.17-2.42a12.2,12.2,0,0,1-1.78-3.29c-1-2.56-1.4-5.3-2.38-7.86a15.87,15.87,0,0,0-4.39-6.32,18.79,18.79,0,0,0-3.21-2.16,14.89,14.89,0,0,0-1.67-.78c-.27-.1-.55-.2-.82-.28a4.27,4.27,0,0,0-1.08-.15c-.05,0-.08.11-.05.13a30.47,30.47,0,0,1,6.24,4.52,16,16,0,0,1,3.94,7,49.9,49.9,0,0,0,2.31,7.49c.88,1.89,2.54,4.65,4.86,4.78C430.84,371.83,430.81,371.36,430.73,371.2Z" style="fill: rgb(224, 224, 224); transform-origin: 421.976px 359.9px;" id="elzzdnmrb9nl" class="animable"></path><path d="M368.89,372a.44.44,0,0,0-.35-.32c-.6,0-.93.42-1.29.84s-.61.75-.89,1.14a19.08,19.08,0,0,0-1.66,2.78c-.73,1.5-1.08,3.86-2.76,4.61-.17.09-.16.56.07.53,2.26-.24,2.92-2.54,3.77-4.27a17,17,0,0,1,1.64-2.71c.31-.43.64-.83,1-1.23S369.15,372.56,368.89,372Z" style="fill: rgb(224, 224, 224); transform-origin: 365.4px 376.631px;" id="elmiunyd9jr8" class="animable"></path><path d="M378.64,377.23c0-.33-.53-.79-.8-.45a8.16,8.16,0,0,0-1.12,2.5c-.29.82-.57,1.64-.82,2.47s-.48,1.65-.71,2.48a8.82,8.82,0,0,0-.27,1.26,3.62,3.62,0,0,0,0,1.39c.07.25.43.62.68.34a4,4,0,0,0,.66-1.4c.13-.38.24-.77.35-1.17.23-.83.46-1.65.71-2.47l.75-2.43A8.21,8.21,0,0,0,378.64,377.23Z" style="fill: rgb(224, 224, 224); transform-origin: 376.746px 381.99px;" id="elb7vzl5yhh8c" class="animable"></path><path d="M394.23,383.76a27.56,27.56,0,0,0,.2-4.54c0-.28-.53-.66-.61-.23-.29,1.5-.46,3-.67,4.5-.1.73-.22,1.46-.32,2.19-.05.37-.08.72-.11,1.09a2.76,2.76,0,0,0,0,1.11c.06.18.34.45.53.26s.3-.7.42-1.1a6.86,6.86,0,0,0,.23-1C394.06,385.27,394.15,384.51,394.23,383.76Z" style="fill: rgb(224, 224, 224); transform-origin: 393.557px 383.501px;" id="elk0dxhiaa1dg" class="animable"></path><path d="M410,384.52c0-.33-.08-.65-.13-1-.1-.6-.21-1.2-.31-1.8a20.44,20.44,0,0,0-1-4.17c-.12-.31-.56-.48-.6,0a18.32,18.32,0,0,0,.35,4.11l.27,1.93c.05.31.1.63.17.93a3,3,0,0,0,.52,1.38c.24.28.46.21.66,0S410,384.84,410,384.52Z" style="fill: rgb(224, 224, 224); transform-origin: 408.997px 381.667px;" id="elx71yoi7br8" class="animable"></path><path d="M422.47,382.12a6,6,0,0,0-1.11-1.5l-.68-.81c-.43-.49-.83-1-1.22-1.52a35,35,0,0,1-3-4.89c-.27-.52-1-.27-.77.31a18.24,18.24,0,0,0,2.54,4.92c.48.67,1,1.32,1.53,1.94a13.76,13.76,0,0,0,1.08,1.08,6.14,6.14,0,0,0,1.19.87A.31.31,0,0,0,422.47,382.12Z" style="fill: rgb(224, 224, 224); transform-origin: 419.073px 377.841px;" id="elqns94azfjk" class="animable"></path><path d="M428.94,378.42a6.16,6.16,0,0,0-1.31-1.29c-.33-.29-.66-.59-1-.9a26.07,26.07,0,0,1-1.79-2,13.6,13.6,0,0,1-1.48-2.14c-.49-.85-.87-1.75-1.38-2.59-.15-.26-.4-.06-.36.19a8.43,8.43,0,0,0,1,2.65,26.83,26.83,0,0,0,1.53,2.52A15.89,15.89,0,0,0,426,377a8,8,0,0,0,2.54,2C428.93,379.17,429.14,378.73,428.94,378.42Z" style="fill: rgb(224, 224, 224); transform-origin: 425.316px 374.208px;" id="eltc1j5c0zm7i" class="animable"></path></g><g id="freepik--crater--inject-4" class="animable" style="transform-origin: 118.047px 383.925px;"><g id="el1xhfucgev14"><ellipse cx="120.07" cy="377.22" rx="19.54" ry="33.85" style="fill: rgb(240, 240, 240); transform-origin: 120.07px 377.22px; transform: rotate(-89.18deg);" class="animable"></ellipse></g><g id="elzoreeb5tjp"><ellipse cx="120.07" cy="377.22" rx="16.33" ry="31.11" style="fill: rgb(224, 224, 224); transform-origin: 120.07px 377.22px; transform: rotate(-89.18deg);" class="animable"></ellipse></g><g id="elixcj1e37oqm"><path d="M98,371.57c-4.52,2.29-7.38,5.15-8.6,8.16,1.06,3.17,3.87,6.22,8.47,8.72,12,6.55,31.75,6.84,44,.63,4.51-2.29,7.37-5.14,8.59-8.16-1.05-3.16-3.86-6.21-8.46-8.71C130,365.66,110.27,365.37,98,371.57Z" style="opacity: 0.1; transform-origin: 119.93px 380.329px;" class="animable"></path></g><path d="M95.21,361.06c-6.59.92-12.12,7.08-14.08,13.19-.63,1.95-1,4-1.55,5.93a24.32,24.32,0,0,1-5.21,9.29c-1.13,1.27-2.68,2.27-3.62,3.68-.31.46.29,1.34.84,1.13a11.72,11.72,0,0,0,4.1-3.13,24.87,24.87,0,0,0,3.25-4.26c2-3.24,2.8-6.69,3.73-10.31a22.85,22.85,0,0,1,4.5-8.86,30.22,30.22,0,0,1,8-6.44C95.26,361.24,95.33,361,95.21,361.06Z" style="fill: rgb(224, 224, 224); transform-origin: 82.9695px 377.681px;" id="elkliqa7ak23" class="animable"></path><path d="M165.36,389.67c-.56-1.22-1.85-1.92-2.68-3a15.12,15.12,0,0,1-2.19-4.05c-1.21-3.16-1.72-6.55-2.94-9.71a19.53,19.53,0,0,0-5.41-7.79,22.78,22.78,0,0,0-3.95-2.66,16.22,16.22,0,0,0-2.07-1c-.34-.13-.67-.24-1-.35a5.41,5.41,0,0,0-1.34-.17c-.05,0-.1.13-.05.15a37.89,37.89,0,0,1,7.69,5.57,20,20,0,0,1,4.87,8.58c.89,3.1,1.46,6.31,2.84,9.25,1.09,2.32,3.13,5.72,6,5.89C165.5,390.46,165.46,389.88,165.36,389.67Z" style="fill: rgb(224, 224, 224); transform-origin: 154.569px 375.664px;" id="el41rnl5iw8q1" class="animable"></path><path d="M89.08,390.63c-.08-.18-.22-.38-.44-.39-.73,0-1.14.52-1.58,1s-.75.93-1.1,1.42a22.86,22.86,0,0,0-2,3.43c-.9,1.84-1.33,4.75-3.4,5.69-.22.1-.2.68.09.65,2.78-.3,3.59-3.14,4.64-5.27a21.44,21.44,0,0,1,2-3.35c.38-.52.79-1,1.21-1.51S89.4,391.35,89.08,390.63Z" style="fill: rgb(224, 224, 224); transform-origin: 84.7979px 396.336px;" id="eli1orakyg5ap" class="animable"></path><path d="M101.1,397.11c0-.4-.64-1-1-.55a10.45,10.45,0,0,0-1.39,3.08c-.36,1-.69,2-1,3.05s-.6,2-.88,3.06a11.92,11.92,0,0,0-.34,1.55,4.48,4.48,0,0,0,0,1.71c.08.31.52.77.83.43a4.75,4.75,0,0,0,.81-1.73c.17-.47.3-1,.44-1.44.27-1,.57-2,.88-3s.6-2,.92-3A10.22,10.22,0,0,0,101.1,397.11Z" style="fill: rgb(224, 224, 224); transform-origin: 98.7538px 402.98px;" id="el5twq675ef" class="animable"></path><path d="M120.34,405.17a33.82,33.82,0,0,0,.24-5.6c0-.35-.64-.82-.75-.29-.36,1.85-.57,3.7-.82,5.56-.12.9-.27,1.8-.4,2.69-.06.46-.1.9-.13,1.36a3.28,3.28,0,0,0,0,1.36c.08.22.42.56.66.32s.37-.87.52-1.35A9,9,0,0,0,120,408C120.13,407,120.24,406.1,120.34,405.17Z" style="fill: rgb(224, 224, 224); transform-origin: 119.508px 404.847px;" id="elorw5bp2bvk" class="animable"></path><path d="M139.79,406.1c0-.4-.1-.8-.16-1.2-.12-.74-.25-1.49-.38-2.23a25.84,25.84,0,0,0-1.23-5.14c-.15-.38-.69-.59-.74,0a22.18,22.18,0,0,0,.42,5.07c.12.79.23,1.59.34,2.38.06.38.12.77.21,1.15a3.75,3.75,0,0,0,.65,1.7c.28.34.56.25.8,0S139.82,406.5,139.79,406.1Z" style="fill: rgb(224, 224, 224); transform-origin: 138.557px 402.607px;" id="el0fjgu4nfwtll" class="animable"></path><path d="M155.17,403.15a7.51,7.51,0,0,0-1.37-1.86c-.28-.33-.54-.67-.83-1-.53-.61-1-1.23-1.51-1.88a44.28,44.28,0,0,1-3.7-6c-.34-.64-1.18-.33-.94.38a22.38,22.38,0,0,0,3.12,6.07,29.17,29.17,0,0,0,1.89,2.39,14,14,0,0,0,1.34,1.33,7.32,7.32,0,0,0,1.47,1.08A.38.38,0,0,0,155.17,403.15Z" style="fill: rgb(224, 224, 224); transform-origin: 150.998px 397.889px;" id="ello7swan0ie" class="animable"></path><path d="M163.16,398.58a7.88,7.88,0,0,0-1.62-1.59q-.61-.54-1.2-1.11c-.79-.78-1.49-1.62-2.21-2.47a17.69,17.69,0,0,1-1.82-2.64c-.6-1-1.07-2.16-1.7-3.19-.19-.33-.5-.07-.45.24a10.18,10.18,0,0,0,1.24,3.26,31.72,31.72,0,0,0,1.88,3.11,19.47,19.47,0,0,0,2.27,2.69,9.86,9.86,0,0,0,3.12,2.45C163.15,399.51,163.41,399,163.16,398.58Z" style="fill: rgb(224, 224, 224); transform-origin: 158.706px 393.397px;" id="eldpvyx9ye5wu" class="animable"></path></g><g id="freepik--crater--inject-4" class="animable" style="transform-origin: 104.214px 322.826px;"><g id="elxv6vc1q8z4a"><ellipse cx="105.12" cy="319.82" rx="8.76" ry="15.18" style="fill: rgb(240, 240, 240); transform-origin: 105.12px 319.82px; transform: rotate(-89.18deg);" class="animable"></ellipse></g><path d="M115.06,314.78c5.41,2.94,5.34,7.57-.15,10.36s-14.32,2.65-19.72-.29-5.34-7.57.15-10.35S109.66,311.84,115.06,314.78Z" style="fill: rgb(224, 224, 224); transform-origin: 105.127px 319.82px;" id="eldon4p3g82to" class="animable"></path><g id="el8ne6ia3fqsk"><path d="M95.24,317.28a7.69,7.69,0,0,0-3.85,3.66,7.46,7.46,0,0,0,3.8,3.91c5.4,2.94,14.23,3.07,19.72.29a7.67,7.67,0,0,0,3.86-3.66,7.53,7.53,0,0,0-3.8-3.91C109.56,314.63,100.73,314.5,95.24,317.28Z" style="opacity: 0.1; transform-origin: 105.08px 321.21px;" class="animable"></path></g><path d="M94,312.57c-3,.41-5.44,3.17-6.32,5.92-.28.87-.43,1.78-.69,2.65a11.4,11.4,0,0,1-.92,2.19,11.53,11.53,0,0,1-1.42,2A18,18,0,0,0,83,327c-.14.2.13.6.38.5a5.22,5.22,0,0,0,1.84-1.4,11.3,11.3,0,0,0,1.45-1.91,15.89,15.89,0,0,0,1.67-4.62,10.39,10.39,0,0,1,2-4A13.45,13.45,0,0,1,94,312.67S94,312.56,94,312.57Z" style="fill: rgb(224, 224, 224); transform-origin: 88.4808px 320.043px;" id="elx8yf5uyogs" class="animable"></path><path d="M125.44,325.4c-.26-.55-.83-.86-1.21-1.34a6.8,6.8,0,0,1-1-1.82c-.54-1.41-.77-2.93-1.32-4.35a8.69,8.69,0,0,0-2.43-3.49,9.29,9.29,0,0,0-1.77-1.19,6.57,6.57,0,0,0-.93-.44,4.72,4.72,0,0,0-.45-.16,2.35,2.35,0,0,0-.6-.07s0,0,0,.07a16.81,16.81,0,0,1,3.45,2.49,8.86,8.86,0,0,1,2.18,3.85,27.28,27.28,0,0,0,1.28,4.15c.49,1,1.4,2.56,2.68,2.64C125.5,325.75,125.48,325.49,125.44,325.4Z" style="fill: rgb(224, 224, 224); transform-origin: 120.599px 319.14px;" id="el4yc5gy51d4q" class="animable"></path><path d="M91.23,325.83a.28.28,0,0,0-.2-.18c-.33,0-.51.24-.71.47a7.57,7.57,0,0,0-.49.63,10.44,10.44,0,0,0-.92,1.54c-.4.83-.6,2.13-1.52,2.55-.1.05-.09.31,0,.29,1.25-.13,1.62-1.4,2.09-2.36a9.46,9.46,0,0,1,.9-1.5c.18-.23.36-.46.55-.68S91.37,326.15,91.23,325.83Z" style="fill: rgb(224, 224, 224); transform-origin: 89.2948px 328.391px;" id="elo119xccckqf" class="animable"></path><path d="M96.62,328.74c0-.18-.29-.44-.44-.25a4.64,4.64,0,0,0-.62,1.38c-.16.45-.32.91-.45,1.37s-.27.91-.4,1.37a5.44,5.44,0,0,0-.15.7,2,2,0,0,0,0,.76c0,.14.23.35.37.19a2.12,2.12,0,0,0,.37-.77c.07-.21.13-.43.19-.65.13-.46.26-.91.4-1.37s.27-.89.41-1.34A4.55,4.55,0,0,0,96.62,328.74Z" style="fill: rgb(224, 224, 224); transform-origin: 95.5718px 331.371px;" id="elpthwbkax4rc" class="animable"></path><path d="M105.25,332.35a16.17,16.17,0,0,0,.1-2.51c0-.16-.28-.37-.33-.13-.16.83-.26,1.66-.37,2.49-.05.4-.12.81-.18,1.21,0,.2,0,.4-.06.61a1.57,1.57,0,0,0,0,.61c0,.1.19.25.3.14a1.42,1.42,0,0,0,.23-.6c.06-.19.09-.38.13-.57C105.15,333.18,105.2,332.77,105.25,332.35Z" style="fill: rgb(224, 224, 224); transform-origin: 104.871px 332.205px;" id="elopl39th983n" class="animable"></path><path d="M114,332.77c0-.18,0-.36-.07-.54-.06-.33-.12-.67-.17-1a12.16,12.16,0,0,0-.56-2.31c-.06-.17-.31-.26-.33,0a10.19,10.19,0,0,0,.19,2.27l.15,1.07c0,.17.06.35.1.52a1.61,1.61,0,0,0,.29.76c.13.15.25.11.36,0S114,333,114,332.77Z" style="fill: rgb(224, 224, 224); transform-origin: 113.444px 331.198px;" id="el9tlgqgoj5sd" class="animable"></path><path d="M120.87,331.44a3.82,3.82,0,0,0-.62-.83c-.13-.15-.24-.3-.37-.44s-.46-.56-.68-.85a20.81,20.81,0,0,1-1.66-2.7c-.15-.29-.53-.15-.42.17a10,10,0,0,0,1.4,2.72c.27.37.55.73.85,1.07a5.66,5.66,0,0,0,.6.6,3.09,3.09,0,0,0,.66.48A.17.17,0,0,0,120.87,331.44Z" style="fill: rgb(224, 224, 224); transform-origin: 118.994px 329.073px;" id="elz8tqox85k1d" class="animable"></path><path d="M124.45,329.39a3.78,3.78,0,0,0-.73-.71l-.54-.5c-.35-.34-.67-.72-1-1.1a8,8,0,0,1-.81-1.19c-.27-.47-.48-1-.76-1.43-.09-.14-.23,0-.21.11A4.56,4.56,0,0,0,121,326a15.25,15.25,0,0,0,.84,1.4,9,9,0,0,0,1,1.2,4.27,4.27,0,0,0,1.4,1.1C124.44,329.81,124.56,329.57,124.45,329.39Z" style="fill: rgb(224, 224, 224); transform-origin: 122.445px 327.065px;" id="ellxjv4zy1tz" class="animable"></path></g><g id="freepik--crater--inject-4" class="animable" style="transform-origin: 380.27px 421.095px;"><g id="elzrven6ocpls"><ellipse cx="381.18" cy="418.08" rx="8.79" ry="15.22" style="fill: rgb(240, 240, 240); transform-origin: 381.18px 418.08px; transform: rotate(-89.18deg);" class="animable"></ellipse></g><g id="elvyzij9cfv1n"><ellipse cx="381.18" cy="418.08" rx="7.34" ry="13.99" style="fill: rgb(224, 224, 224); transform-origin: 381.18px 418.08px; transform: rotate(-89.18deg);" class="animable"></ellipse></g><g id="elyspbw8koodn"><path d="M371.27,415.54a7.67,7.67,0,0,0-3.87,3.67,7.53,7.53,0,0,0,3.81,3.92c5.42,2.95,14.28,3.07,19.78.28a7.62,7.62,0,0,0,3.87-3.66,7.46,7.46,0,0,0-3.81-3.92C385.63,412.88,376.77,412.75,371.27,415.54Z" style="opacity: 0.1; transform-origin: 381.13px 419.477px;" class="animable"></path></g><path d="M370,410.81c-3,.41-5.45,3.19-6.34,5.94-.28.87-.43,1.78-.69,2.66a11.17,11.17,0,0,1-.93,2.2,11,11,0,0,1-1.41,2,16.9,16.9,0,0,0-1.63,1.65c-.14.21.13.61.38.51a5.25,5.25,0,0,0,1.84-1.41,10.86,10.86,0,0,0,1.46-1.91,16.33,16.33,0,0,0,1.68-4.64,10.16,10.16,0,0,1,2-4,13.57,13.57,0,0,1,3.62-2.9S370.05,410.8,370,410.81Z" style="fill: rgb(224, 224, 224); transform-origin: 364.49px 418.298px;" id="elx5bgpghhyj" class="animable"></path><path d="M401.55,423.68c-.26-.55-.83-.86-1.21-1.34a7,7,0,0,1-1-1.82c-.54-1.43-.77-2.95-1.31-4.37a8.84,8.84,0,0,0-2.44-3.5,10.28,10.28,0,0,0-1.78-1.2,7.9,7.9,0,0,0-.93-.44l-.45-.15a2,2,0,0,0-.6-.08s0,.06,0,.07a17,17,0,0,1,3.46,2.5,9,9,0,0,1,2.19,3.86,27.05,27.05,0,0,0,1.28,4.16c.49,1,1.41,2.58,2.7,2.65C401.61,424,401.59,423.77,401.55,423.68Z" style="fill: rgb(224, 224, 224); transform-origin: 396.704px 417.4px;" id="elrkwmxg89xj" class="animable"></path><path d="M367.24,424.11a.24.24,0,0,0-.2-.17c-.32,0-.51.23-.71.46s-.34.42-.49.64a10.86,10.86,0,0,0-.93,1.54c-.4.83-.59,2.14-1.52,2.56-.1,0-.09.3,0,.29,1.25-.13,1.61-1.41,2.08-2.37a10.09,10.09,0,0,1,.91-1.51c.18-.23.36-.46.55-.67S367.38,424.43,367.24,424.11Z" style="fill: rgb(224, 224, 224); transform-origin: 365.299px 426.685px;" id="el8gscxk7g7ao" class="animable"></path><path d="M372.65,427c0-.19-.29-.44-.45-.25a4.91,4.91,0,0,0-.62,1.38c-.16.46-.31.91-.45,1.38s-.27.91-.39,1.37a4.18,4.18,0,0,0-.16.7,2,2,0,0,0,0,.77c0,.14.24.34.38.19a2.14,2.14,0,0,0,.36-.78c.08-.21.14-.43.2-.65.12-.46.25-.91.39-1.37l.42-1.35A4.55,4.55,0,0,0,372.65,427Z" style="fill: rgb(224, 224, 224); transform-origin: 371.596px 429.638px;" id="eluf9u0m6h6hg" class="animable"></path><path d="M381.3,430.65a15.19,15.19,0,0,0,.11-2.52c0-.16-.29-.37-.34-.13-.16.83-.25,1.66-.37,2.5-.05.41-.12.81-.18,1.21,0,.21,0,.41-.06.61a1.62,1.62,0,0,0,0,.62c0,.09.19.25.3.14a1.41,1.41,0,0,0,.23-.61,3.63,3.63,0,0,0,.13-.57C381.2,431.49,381.25,431.07,381.3,430.65Z" style="fill: rgb(224, 224, 224); transform-origin: 380.926px 430.504px;" id="elouay3gb9kuq" class="animable"></path><path d="M390.05,431.07c0-.18-.05-.36-.08-.54-.05-.34-.11-.67-.17-1a11.36,11.36,0,0,0-.55-2.32c-.06-.17-.31-.26-.33,0a9.72,9.72,0,0,0,.19,2.28l.15,1.07c0,.17.05.35.09.52a1.8,1.8,0,0,0,.29.76.22.22,0,0,0,.37,0C390.13,431.69,390.06,431.25,390.05,431.07Z" style="fill: rgb(224, 224, 224); transform-origin: 389.497px 429.494px;" id="elqorrjwycaeh" class="animable"></path><path d="M397,429.74a3.53,3.53,0,0,0-.61-.84c-.13-.14-.25-.29-.37-.44s-.47-.56-.69-.85a21.35,21.35,0,0,1-1.66-2.71c-.15-.29-.53-.15-.42.17a9.94,9.94,0,0,0,1.4,2.73c.27.37.55.73.85,1.08.19.2.39.42.6.6a3.37,3.37,0,0,0,.66.48A.17.17,0,0,0,397,429.74Z" style="fill: rgb(224, 224, 224); transform-origin: 395.124px 427.363px;" id="elptk9pqbniy" class="animable"></path><path d="M400.56,427.69a3.56,3.56,0,0,0-.73-.72c-.18-.16-.37-.33-.54-.5a14.81,14.81,0,0,1-1-1.11,7.4,7.4,0,0,1-.82-1.19c-.28-.47-.49-1-.77-1.43-.08-.15-.22,0-.2.1a4.52,4.52,0,0,0,.56,1.47,15.25,15.25,0,0,0,.84,1.4,9.19,9.19,0,0,0,1,1.21,4.28,4.28,0,0,0,1.41,1.1C400.55,428.1,400.67,427.86,400.56,427.69Z" style="fill: rgb(224, 224, 224); transform-origin: 398.55px 425.356px;" id="elvq8j0vp6bll" class="animable"></path></g></g><g id="freepik--Background--inject-4" class="animable" style="transform-origin: 255.082px 182.276px;"><path id="freepik--background--inject-4" d="M358,122.41c-11-14.48-18.22-34.4-26-50.64-9.32-19.51-22.59-33.9-41.59-44.13-48-25.83-108.28-9.93-147.63,23.49a163.31,163.31,0,0,0-31.63,36.09c-27.39,42.62-37.76,100.68-19,148.29,17.63,44.67,53.32,82.06,97.32,101.39C217,349,250.69,351.39,280.3,348.8c53.56-4.7,106.66-27.59,130.85-71.37,15.74-28.47,18.05-66.08,5.49-90.52C399.26,153.09,378.43,149.2,358,122.41Zm23.92,2.23a40.77,40.77,0,0,0,14.93,7.08c9.81,2.27,20,.11,26.36-9.88,5.66-8.94,4.89-20.48,2.57-30.81-2.89-12.81-8.09-25.45-17.26-34.85-12.3-12.62-39.46-21.19-49.89-1.54-4.13,7.76-4.84,16.44-3.64,25A69.18,69.18,0,0,0,381.93,124.64Z" style="fill: rgb(38, 50, 56); transform-origin: 255.082px 182.276px;" class="animable"></path></g><g id="freepik--Shadow--inject-4" class="animable" style="transform-origin: 255.462px 423.827px;"><path id="freepik--shadow--inject-4" d="M195.14,389c-33.31,19.23-33.31,50.41,0,69.65s87.33,19.23,120.64,0,33.32-50.42,0-69.65S228.46,369.77,195.14,389Z" style="fill: rgb(230, 230, 230); transform-origin: 255.462px 423.827px;" class="animable"></path></g><g id="freepik--Stars--inject-4" class="animable" style="transform-origin: 254.541px 164.667px;"><g id="freepik--stars--inject-4" class="animable" style="transform-origin: 254.541px 164.667px;"><path d="M350.83,33.44a1.07,1.07,0,0,1-1.18.93,1.06,1.06,0,0,1,.24-2.11A1.07,1.07,0,0,1,350.83,33.44Z" style="fill: rgb(0, 255, 136); transform-origin: 349.773px 33.315px;" id="el4dyey1rlob3" class="animable"></path><path d="M132.25,116.32a2,2,0,1,1-2-2A2,2,0,0,1,132.25,116.32Z" style="fill: rgb(0, 255, 136); transform-origin: 130.25px 116.32px;" id="el2139fd58tl4j" class="animable"></path><g id="el5s7nztbm4k4"><path d="M132.25,116.32a2,2,0,1,1-2-2A2,2,0,0,1,132.25,116.32Z" style="fill: rgb(255, 255, 255); opacity: 0.7; transform-origin: 130.25px 116.32px;" class="animable"></path></g><path d="M185.88,50.67a2.12,2.12,0,1,1-.33-3A2.13,2.13,0,0,1,185.88,50.67Z" style="fill: rgb(0, 255, 136); transform-origin: 184.233px 49.3328px;" id="el88wnmcrq3bt" class="animable"></path><g id="elefig9zyrre"><path d="M185.88,50.67a2.12,2.12,0,1,1-.33-3A2.13,2.13,0,0,1,185.88,50.67Z" style="fill: rgb(255, 255, 255); opacity: 0.7; transform-origin: 184.233px 49.3328px;" class="animable"></path></g><path d="M343.16,38.07a2.12,2.12,0,1,1-1.87-2.35A2.13,2.13,0,0,1,343.16,38.07Z" style="fill: rgb(0, 255, 136); transform-origin: 341.053px 37.8268px;" id="elp2d3lhjlxd" class="animable"></path><g id="elb07ko877d7"><path d="M343.16,38.07a2.12,2.12,0,1,1-1.87-2.35A2.13,2.13,0,0,1,343.16,38.07Z" style="fill: rgb(255, 255, 255); opacity: 0.7; transform-origin: 341.053px 37.8268px;" class="animable"></path></g><path d="M52.52,142.51a2,2,0,1,1-2.65-.87A2,2,0,0,1,52.52,142.51Z" style="fill: rgb(0, 255, 136); transform-origin: 50.7478px 143.437px;" id="els5t9rd7lt5m" class="animable"></path><g id="elbifjcs6rmh"><path d="M52.52,142.51a2,2,0,1,1-2.65-.87A2,2,0,0,1,52.52,142.51Z" style="fill: rgb(255, 255, 255); opacity: 0.7; transform-origin: 50.7478px 143.437px;" class="animable"></path></g><path d="M379.13,226.3a2.12,2.12,0,1,1-1.56,2.56A2.12,2.12,0,0,1,379.13,226.3Z" style="fill: rgb(0, 255, 136); transform-origin: 379.63px 228.36px;" id="elr53fima1re" class="animable"></path><g id="eliphi9re5l2l"><path d="M379.13,226.3a2.12,2.12,0,1,1-1.56,2.56A2.12,2.12,0,0,1,379.13,226.3Z" style="fill: rgb(255, 255, 255); opacity: 0.7; transform-origin: 379.63px 228.36px;" class="animable"></path></g><path d="M101.16,53.94a2.12,2.12,0,1,1-1.56,2.57A2.11,2.11,0,0,1,101.16,53.94Z" style="fill: rgb(0, 255, 136); transform-origin: 101.657px 56.0007px;" id="el7fx3ihkqzgb" class="animable"></path><g id="elhhiscmjumxg"><path d="M101.16,53.94a2.12,2.12,0,1,1-1.56,2.57A2.11,2.11,0,0,1,101.16,53.94Z" style="fill: rgb(255, 255, 255); opacity: 0.7; transform-origin: 101.657px 56.0007px;" class="animable"></path></g><path d="M468.56,283.79a2,2,0,1,1-2-2A2,2,0,0,1,468.56,283.79Z" style="fill: rgb(0, 255, 136); transform-origin: 466.56px 283.79px;" id="elcemzodsl0bm" class="animable"></path><g id="elhgvox5ywyi8"><path d="M468.56,283.79a2,2,0,1,1-2-2A2,2,0,0,1,468.56,283.79Z" style="fill: rgb(255, 255, 255); opacity: 0.7; transform-origin: 466.56px 283.79px;" class="animable"></path></g><path d="M457.59,149a3.55,3.55,0,1,1-3.54-3.54A3.54,3.54,0,0,1,457.59,149Z" style="fill: rgb(0, 255, 136); transform-origin: 454.04px 149.01px;" id="el6ngi15cothd" class="animable"></path><g id="elduagej3x68a"><path d="M457.59,149a3.55,3.55,0,1,1-3.54-3.54A3.54,3.54,0,0,1,457.59,149Z" style="fill: rgb(255, 255, 255); opacity: 0.7; transform-origin: 454.04px 149.01px;" class="animable"></path></g><path d="M447,158.73a2.12,2.12,0,1,1-2.12-2.12A2.11,2.11,0,0,1,447,158.73Z" style="fill: rgb(0, 255, 136); transform-origin: 444.88px 158.73px;" id="elbg6qbsgkeq5" class="animable"></path><g id="eld9wduew5c3a"><path d="M447,158.73a2.12,2.12,0,1,1-2.12-2.12A2.11,2.11,0,0,1,447,158.73Z" style="fill: rgb(255, 255, 255); opacity: 0.7; transform-origin: 444.88px 158.73px;" class="animable"></path></g><path d="M140.36,240.9a2.12,2.12,0,1,0,1.56,2.57A2.13,2.13,0,0,0,140.36,240.9Z" style="fill: rgb(0, 255, 136); transform-origin: 139.861px 242.961px;" id="el8e53w23ff6p" class="animable"></path><g id="eljjxijiznfes"><path d="M140.36,240.9a2.12,2.12,0,1,0,1.56,2.57A2.13,2.13,0,0,0,140.36,240.9Z" style="fill: rgb(255, 255, 255); opacity: 0.7; transform-origin: 139.861px 242.961px;" class="animable"></path></g><path d="M399.47,92.81a2,2,0,1,0,2.65-.87A2,2,0,0,0,399.47,92.81Z" style="fill: rgb(0, 255, 136); transform-origin: 401.242px 93.737px;" id="el1mwunro756b" class="animable"></path><g id="elxpcg2gydq9"><path d="M399.47,92.81a2,2,0,1,0,2.65-.87A2,2,0,0,0,399.47,92.81Z" style="fill: rgb(255, 255, 255); opacity: 0.7; transform-origin: 401.242px 93.737px;" class="animable"></path></g><path d="M466.87,223.47a2.56,2.56,0,1,0,3.45-1.14A2.57,2.57,0,0,0,466.87,223.47Z" style="fill: rgb(0, 255, 136); transform-origin: 469.161px 224.614px;" id="ele85bpzsyk2" class="animable"></path><g id="elmit7f3b1wz"><path d="M466.87,223.47a2.56,2.56,0,1,0,3.45-1.14A2.57,2.57,0,0,0,466.87,223.47Z" style="fill: rgb(255, 255, 255); opacity: 0.7; transform-origin: 469.161px 224.614px;" class="animable"></path></g><path d="M365.91,180.63a2,2,0,1,1-2-2A2,2,0,0,1,365.91,180.63Z" style="fill: rgb(0, 255, 136); transform-origin: 363.91px 180.63px;" id="elo5nkvw80cn" class="animable"></path><g id="el1ftqk1y84c4h"><path d="M365.91,180.63a2,2,0,1,1-2-2A2,2,0,0,1,365.91,180.63Z" style="fill: rgb(255, 255, 255); opacity: 0.8; transform-origin: 363.91px 180.63px;" class="animable"></path></g><path d="M454.44,57.33a2,2,0,1,1-2-2A2,2,0,0,1,454.44,57.33Z" style="fill: rgb(0, 255, 136); transform-origin: 452.44px 57.33px;" id="ellti38jj6ry" class="animable"></path><g id="elddajhahlh8m"><path d="M454.44,57.33a2,2,0,1,1-2-2A2,2,0,0,1,454.44,57.33Z" style="fill: rgb(255, 255, 255); opacity: 0.8; transform-origin: 452.44px 57.33px;" class="animable"></path></g><path d="M194,46.1a1.06,1.06,0,1,1-.16-1.49A1.06,1.06,0,0,1,194,46.1Z" style="fill: rgb(0, 255, 136); transform-origin: 193.175px 45.435px;" id="elicsq5uhw9jf" class="animable"></path><g id="elsvg7t2celr"><path d="M194,46.1a1.06,1.06,0,1,1-.16-1.49A1.06,1.06,0,0,1,194,46.1Z" style="fill: rgb(255, 255, 255); opacity: 0.8; transform-origin: 193.175px 45.435px;" class="animable"></path></g><g id="el9o13xoc2b6"><path d="M350.83,33.44a1.07,1.07,0,0,1-1.18.93,1.06,1.06,0,0,1,.24-2.11A1.07,1.07,0,0,1,350.83,33.44Z" style="fill: rgb(255, 255, 255); opacity: 0.8; transform-origin: 349.773px 33.315px;" class="animable"></path></g><path d="M391.82,98.08a1.06,1.06,0,1,1-.78,1.28A1.06,1.06,0,0,1,391.82,98.08Z" style="fill: rgb(0, 255, 136); transform-origin: 392.07px 99.1101px;" id="elnqgq7yn99o" class="animable"></path><g id="elbuzvhvwl2lr"><path d="M391.82,98.08a1.06,1.06,0,1,1-.78,1.28A1.06,1.06,0,0,1,391.82,98.08Z" style="fill: rgb(255, 255, 255); opacity: 0.8; transform-origin: 392.07px 99.1101px;" class="animable"></path></g><path d="M43.89,219.48A3.46,3.46,0,1,1,39.24,218,3.47,3.47,0,0,1,43.89,219.48Z" style="fill: rgb(0, 255, 136); transform-origin: 40.821px 221.079px;" id="elezoa6aisthk" class="animable"></path><g id="elb4af8udbrf8"><path d="M43.89,219.48A3.46,3.46,0,1,1,39.24,218,3.47,3.47,0,0,1,43.89,219.48Z" style="fill: rgb(255, 255, 255); opacity: 0.8; transform-origin: 40.821px 221.079px;" class="animable"></path></g><path d="M369.87,225a1.07,1.07,0,1,1-.78,1.29A1.07,1.07,0,0,1,369.87,225Z" style="fill: rgb(0, 255, 136); transform-origin: 370.13px 226.038px;" id="elkjdfiuhwza" class="animable"></path><g id="elz0xmkkftc4l"><path d="M369.87,225a1.07,1.07,0,1,1-.78,1.29A1.07,1.07,0,0,1,369.87,225Z" style="fill: rgb(255, 255, 255); opacity: 0.8; transform-origin: 370.13px 226.038px;" class="animable"></path></g><path d="M91.91,52.6a1.06,1.06,0,1,1-.78,1.29A1.06,1.06,0,0,1,91.91,52.6Z" style="fill: rgb(0, 255, 136); transform-origin: 92.1578px 53.6306px;" id="elnyn8i5twxq" class="animable"></path><g id="elflyxam8kne"><path d="M91.91,52.6a1.06,1.06,0,1,1-.78,1.29A1.06,1.06,0,0,1,91.91,52.6Z" style="fill: rgb(255, 255, 255); opacity: 0.8; transform-origin: 92.1578px 53.6306px;" class="animable"></path></g><path d="M99.9,43.65a1.06,1.06,0,1,1-.78,1.29A1.06,1.06,0,0,1,99.9,43.65Z" style="fill: rgb(0, 255, 136); transform-origin: 100.148px 44.6806px;" id="elom82i2rzzb" class="animable"></path><g id="elqdo6npt6hsq"><path d="M99.9,43.65a1.06,1.06,0,1,1-.78,1.29A1.06,1.06,0,0,1,99.9,43.65Z" style="fill: rgb(255, 255, 255); opacity: 0.8; transform-origin: 100.148px 44.6806px;" class="animable"></path></g><path d="M289.9,38.66a2,2,0,1,1-2.18,1.73A2,2,0,0,1,289.9,38.66Z" style="fill: rgb(0, 255, 136); transform-origin: 289.703px 40.6503px;" id="elf1jghf2lc7" class="animable"></path><g id="el4jpwwhhjqw4"><path d="M289.9,38.66a2,2,0,1,1-2.18,1.73A2,2,0,0,1,289.9,38.66Z" style="fill: rgb(255, 255, 255); opacity: 0.8; transform-origin: 289.703px 40.6503px;" class="animable"></path></g><path d="M328,119.87a2,2,0,1,1-2-2A2,2,0,0,1,328,119.87Z" style="fill: rgb(0, 255, 136); transform-origin: 326px 119.87px;" id="eluepja5qyjmj" class="animable"></path><g id="elewbg9jncjf"><path d="M328,119.87a2,2,0,1,1-2-2A2,2,0,0,1,328,119.87Z" style="fill: rgb(255, 255, 255); opacity: 0.8; transform-origin: 326px 119.87px;" class="animable"></path></g><path d="M441,145.5a1.71,1.71,0,1,1-1.71-1.71A1.71,1.71,0,0,1,441,145.5Z" style="fill: rgb(0, 255, 136); transform-origin: 439.29px 145.5px;" id="eldwmu5mrotfg" class="animable"></path><g id="elcsu0vk81slf"><path d="M441,145.5a1.71,1.71,0,1,1-1.71-1.71A1.71,1.71,0,0,1,441,145.5Z" style="fill: rgb(255, 255, 255); opacity: 0.8; transform-origin: 439.29px 145.5px;" class="animable"></path></g><path d="M130.54,238a1.06,1.06,0,1,0,.78,1.28A1.05,1.05,0,0,0,130.54,238Z" style="fill: rgb(0, 255, 136); transform-origin: 130.291px 239.03px;" id="el3a8uvoma68r" class="animable"></path><g id="elpen8yhvulb"><path d="M130.54,238a1.06,1.06,0,1,0,.78,1.28A1.05,1.05,0,0,0,130.54,238Z" style="fill: rgb(255, 255, 255); opacity: 0.8; transform-origin: 130.291px 239.03px;" class="animable"></path></g><path d="M171.69,292.48a1.06,1.06,0,1,0,.78,1.28A1.05,1.05,0,0,0,171.69,292.48Z" style="fill: rgb(0, 255, 136); transform-origin: 171.441px 293.51px;" id="elkjfuhzqkut" class="animable"></path><g id="elcv0qwpxb26q"><path d="M171.69,292.48a1.06,1.06,0,1,0,.78,1.28A1.05,1.05,0,0,0,171.69,292.48Z" style="fill: rgb(255, 255, 255); opacity: 0.8; transform-origin: 171.441px 293.51px;" class="animable"></path></g><path d="M57.58,241.46a2,2,0,1,0,2.65-.87A2,2,0,0,0,57.58,241.46Z" style="fill: rgb(0, 255, 136); transform-origin: 59.3522px 242.387px;" id="elf1v0zcehyj6" class="animable"></path><g id="el8r6jx6h7u64"><path d="M57.58,241.46a2,2,0,1,0,2.65-.87A2,2,0,0,0,57.58,241.46Z" style="fill: rgb(255, 255, 255); opacity: 0.8; transform-origin: 59.3522px 242.387px;" class="animable"></path></g><path d="M380.9,74.31a2,2,0,1,0,2.64-.87A2,2,0,0,0,380.9,74.31Z" style="fill: rgb(0, 255, 136); transform-origin: 382.67px 75.2409px;" id="el3s3leiluo7v" class="animable"></path><g id="el0mkmmd5jhai"><path d="M380.9,74.31a2,2,0,1,0,2.64-.87A2,2,0,0,0,380.9,74.31Z" style="fill: rgb(255, 255, 255); opacity: 0.8; transform-origin: 382.67px 75.2409px;" class="animable"></path></g><path d="M456.89,230.34a1.38,1.38,0,0,1,.66,2.69,1.4,1.4,0,0,1-1.68-1A1.39,1.39,0,0,1,456.89,230.34Z" style="fill: rgb(0, 255, 136); transform-origin: 457.214px 231.685px;" id="el4xqyo2rn3pe" class="animable"></path><g id="elr85oayvtu6o"><path d="M456.89,230.34a1.38,1.38,0,0,1,.66,2.69,1.4,1.4,0,0,1-1.68-1A1.39,1.39,0,0,1,456.89,230.34Z" style="fill: rgb(255, 255, 255); opacity: 0.8; transform-origin: 457.214px 231.685px;" class="animable"></path></g><path d="M42.75,150.5a2,2,0,1,1-1.67-2.24A2,2,0,0,1,42.75,150.5Z" style="fill: rgb(0, 255, 136); transform-origin: 40.7676px 150.235px;" id="elpheo9p01p3" class="animable"></path><g id="elnfuafik1uy"><path d="M42.75,150.5a2,2,0,1,1-1.67-2.24A2,2,0,0,1,42.75,150.5Z" style="fill: rgb(255, 255, 255); opacity: 0.8; transform-origin: 40.7676px 150.235px;" class="animable"></path></g><path d="M52.73,86.53a5.67,5.67,0,1,1,5.67-5.67A5.67,5.67,0,0,1,52.73,86.53Zm0-10.63a5,5,0,1,0,5,5A5,5,0,0,0,52.73,75.9Z" style="fill: rgb(0, 255, 136); transform-origin: 52.73px 80.86px;" id="elb318jwdpshc" class="animable"></path><path d="M52.73,79.3a1.56,1.56,0,1,1-1.56,1.56A1.56,1.56,0,0,1,52.73,79.3Z" style="fill: rgb(0, 255, 136); transform-origin: 52.73px 80.86px;" id="el8im2y9ld8sv" class="animable"></path><g id="el351xxkcyrf8"><path d="M52.73,79.3a1.56,1.56,0,1,1-1.56,1.56A1.56,1.56,0,0,1,52.73,79.3Z" style="fill: rgb(255, 255, 255); opacity: 0.8; transform-origin: 52.73px 80.86px;" class="animable"></path></g><path d="M119,182.53a7.58,7.58,0,1,1,7.57-7.58A7.58,7.58,0,0,1,119,182.53Zm0-14.45a6.87,6.87,0,1,0,6.87,6.87A6.88,6.88,0,0,0,119,168.08Z" style="fill: rgb(0, 255, 136); transform-origin: 118.99px 174.95px;" id="elql3y5ia3fhk" class="animable"></path><path d="M119,172.84a2.12,2.12,0,1,1-2.12,2.11A2.11,2.11,0,0,1,119,172.84Z" style="fill: rgb(0, 255, 136); transform-origin: 119px 174.96px;" id="elmny2i07esq" class="animable"></path><g id="elaxzirk67e2"><path d="M119,172.84a2.12,2.12,0,1,1-2.12,2.11A2.11,2.11,0,0,1,119,172.84Z" style="fill: rgb(255, 255, 255); opacity: 0.8; transform-origin: 119px 174.96px;" class="animable"></path></g><path d="M355.13,297.08a11.32,11.32,0,1,1,11.32-11.32A11.34,11.34,0,0,1,355.13,297.08Zm0-21.59a10.27,10.27,0,1,0,10.27,10.27A10.29,10.29,0,0,0,355.13,275.49Z" style="fill: rgb(0, 255, 136); transform-origin: 355.13px 285.76px;" id="elbei1e0pvqwg" class="animable"></path><path d="M355.13,282.6a3.17,3.17,0,1,1-3.16,3.16A3.16,3.16,0,0,1,355.13,282.6Z" style="fill: rgb(0, 255, 136); transform-origin: 355.14px 285.77px;" id="elr652y7clfgc" class="animable"></path><g id="eli4vbqcoq7va"><path d="M355.13,282.6a3.17,3.17,0,1,1-3.16,3.16A3.16,3.16,0,0,1,355.13,282.6Z" style="fill: rgb(255, 255, 255); opacity: 0.8; transform-origin: 355.14px 285.77px;" class="animable"></path></g></g></g><g id="freepik--Character--inject-4" class="animable" style="transform-origin: 239.058px 245.415px;"><g id="freepik--Astronaut--inject-4" class="animable" style="transform-origin: 239.058px 245.415px;"><g id="freepik--Backpack--inject-4" class="animable" style="transform-origin: 221.325px 159.868px;"><path d="M274.37,204.74c0-2.71-.95-4.61-2.49-5.49s-25-14.45-26.54-15.33-3.64-.73-6,.61l-62.59,36.14c-4.69,2.7-8.48,9.28-8.48,14.69v21c0,2.7.95,4.6,2.48,5.49l26.52,15.31c1.53.88,3.65.76,6-.6l62.59-36.13c4.68-2.71,8.48-9.29,8.48-14.69Z" style="fill: rgb(250, 250, 250); transform-origin: 221.32px 230.545px;" id="eln5nqk9fhzke" class="animable"></path><path d="M194.8,250.67v21c0,2.58.85,4.44,2.29,5.39-2.78-1.6-24.81-14.33-26.31-15.18s-2.48-2.8-2.48-5.51v-21a17.21,17.21,0,0,1,2.38-8.16c9.5,5.48,18.64,10.74,26.51,15.31A17.1,17.1,0,0,0,194.8,250.67Z" style="fill: rgb(240, 240, 240); transform-origin: 182.745px 252.135px;" id="elfn4klijdmh" class="animable"></path><path d="M203.29,236l62.6-36.14c2.34-1.35,4.46-1.48,6-.59s2.49,2.78,2.49,5.49v21c0,5.4-3.8,12-8.48,14.69L203.3,276.53c-2.35,1.36-4.47,1.48-6,.6s-2.48-2.79-2.48-5.49v-21C194.81,245.26,198.61,238.68,203.29,236Z" style="fill: rgb(224, 224, 224); transform-origin: 234.6px 238.198px;" id="elwqaerl16csr" class="animable"></path><g id="eledwz88u0tiv"><path d="M203.29,236l62.6-36.14c2.34-1.35,4.46-1.48,6-.59s2.49,2.78,2.49,5.49v21c0,5.4-3.8,12-8.48,14.69L203.3,276.53c-2.35,1.36-4.47,1.48-6,.6s-2.48-2.79-2.48-5.49v-21C194.81,245.26,198.61,238.68,203.29,236Z" style="opacity: 0.1; transform-origin: 234.6px 238.198px;" class="animable"></path></g><polygon points="186.4 256.76 186.4 254.01 168.3 243.56 168.3 246.31 186.4 256.76" style="fill: rgb(0, 255, 136); transform-origin: 177.35px 250.16px;" id="elllrhhwe8mr" class="animable"></polygon><polygon points="186.4 263.01 186.4 260.26 168.3 249.81 168.3 252.56 186.4 263.01" style="fill: rgb(0, 255, 136); transform-origin: 177.35px 256.41px;" id="elqiq5lqai9g9" class="animable"></polygon><polygon points="186.4 247.76 168.3 237.31 168.3 240.06 186.4 250.51 186.4 247.76" style="fill: rgb(0, 255, 136); transform-origin: 177.35px 243.91px;" id="elr7hgip2vnv" class="animable"></polygon><path d="M274.37,63.38c0-2.7-.95-4.6-2.49-5.49s-25-14.44-26.54-15.32-3.64-.74-6,.61L176.78,79.31C172.09,82,168.3,88.59,168.3,94V212.21c0,2.7.95,4.6,2.48,5.49L197.3,233c1.53.89,3.65.76,6-.59l62.59-36.14c4.68-2.71,8.48-9.28,8.48-14.69Z" style="fill: rgb(250, 250, 250); transform-origin: 221.335px 137.791px;" id="elyzv7vygyon" class="animable"></path><path d="M194.8,109.31v118.2c0,2.58.85,4.44,2.29,5.38-2.78-1.6-24.81-14.33-26.31-15.17s-2.48-2.81-2.48-5.52V94a17.24,17.24,0,0,1,2.38-8.16c9.5,5.49,18.64,10.74,26.51,15.31A17.13,17.13,0,0,0,194.8,109.31Z" style="fill: rgb(240, 240, 240); transform-origin: 182.745px 159.365px;" id="el0zyz12a8qsy" class="animable"></path><path d="M203.29,94.62l62.6-36.13c2.34-1.36,4.46-1.48,6-.6s2.49,2.79,2.49,5.49V181.59c0,5.41-3.8,12-8.48,14.69L203.3,232.42c-2.35,1.35-4.47,1.48-6,.59s-2.48-2.79-2.48-5.49V109.31C194.81,103.9,198.61,97.33,203.29,94.62Z" style="fill: rgb(224, 224, 224); transform-origin: 234.6px 145.452px;" id="elhek4ynrksj" class="animable"></path><g id="elcaj3w6jvwds"><path d="M203.29,94.62l62.6-36.13c2.34-1.36,4.46-1.48,6-.6s2.49,2.79,2.49,5.49V181.59c0,5.41-3.8,12-8.48,14.69L203.3,232.42c-2.35,1.35-4.47,1.48-6,.59s-2.48-2.79-2.48-5.49V109.31C194.81,103.9,198.61,97.33,203.29,94.62Z" style="opacity: 0.1; transform-origin: 234.6px 145.452px;" class="animable"></path></g><polygon points="174.93 175.66 188.19 183.32 188.19 198.63 174.93 190.97 174.93 175.66" style="fill: rgb(69, 90, 100); transform-origin: 181.56px 187.145px;" id="ell6mxwwg1wv" class="animable"></polygon><polygon points="174.93 194.53 188.19 202.19 188.19 205.55 174.93 197.89 174.93 194.53" style="fill: rgb(69, 90, 100); transform-origin: 181.56px 200.04px;" id="eltyycr5scfd" class="animable"></polygon><polygon points="174.93 200.91 188.19 208.56 188.19 211.92 174.93 204.27 174.93 200.91" style="fill: rgb(69, 90, 100); transform-origin: 181.56px 206.415px;" id="elvbcazngu8vb" class="animable"></polygon><polygon points="186.4 118.97 186.4 116.22 168.3 105.77 168.3 108.52 186.4 118.97" style="fill: rgb(0, 255, 136); transform-origin: 177.35px 112.37px;" id="eltkii00f378e" class="animable"></polygon><polygon points="186.4 125.22 186.4 122.47 168.3 112.02 168.3 114.77 186.4 125.22" style="fill: rgb(0, 255, 136); transform-origin: 177.35px 118.62px;" id="elk302c0v5qpk" class="animable"></polygon><polygon points="186.4 109.97 168.3 99.52 168.3 102.27 186.4 112.72 186.4 109.97" style="fill: rgb(0, 255, 136); transform-origin: 177.35px 106.12px;" id="elf9ml1k9zbgi" class="animable"></polygon><path d="M175.25,133.89a3.69,3.69,0,0,0-1.52,3.38,11.54,11.54,0,0,0,5.21,9,3.64,3.64,0,0,0,3.68.36l3.33-1.92a3.66,3.66,0,0,0,1.52-3.37,11.51,11.51,0,0,0-5.21-9,3.64,3.64,0,0,0-3.68-.36Z" style="fill: rgb(38, 50, 56); transform-origin: 180.6px 139.305px;" id="eljpio7jz0h8" class="animable"></path><path d="M178.94,146.3a3.18,3.18,0,0,0,5.21-3,11.51,11.51,0,0,0-5.21-9,3.17,3.17,0,0,0-5.21,3A11.54,11.54,0,0,0,178.94,146.3Z" style="fill: rgb(69, 90, 100); transform-origin: 178.937px 140.292px;" id="elz9f05v4ox9" class="animable"></path><path d="M175.25,155.34a3.66,3.66,0,0,0-1.52,3.37,11.52,11.52,0,0,0,5.21,9,3.64,3.64,0,0,0,3.68.36l3.33-1.92a3.66,3.66,0,0,0,1.52-3.37,11.52,11.52,0,0,0-5.21-9,3.64,3.64,0,0,0-3.68-.36Z" style="fill: rgb(0, 255, 136); transform-origin: 180.6px 160.745px;" id="el88fb5hv8epn" class="animable"></path><g id="elq5oayvhg3se"><path d="M175.25,155.34a3.66,3.66,0,0,0-1.52,3.37,11.52,11.52,0,0,0,5.21,9,3.64,3.64,0,0,0,3.68.36l3.33-1.92a3.66,3.66,0,0,0,1.52-3.37,11.52,11.52,0,0,0-5.21-9,3.64,3.64,0,0,0-3.68-.36Z" style="fill: rgb(255, 255, 255); opacity: 0.3; transform-origin: 180.6px 160.745px;" class="animable"></path></g><path d="M178.94,167.74a3.18,3.18,0,0,0,5.21-3,11.51,11.51,0,0,0-5.21-9,3.18,3.18,0,0,0-5.21,3A11.52,11.52,0,0,0,178.94,167.74Z" style="fill: rgb(0, 255, 136); transform-origin: 178.94px 161.74px;" id="el13pkcn4ww3jq" class="animable"></path></g><g id="freepik--Arm--inject-4" class="animable" style="transform-origin: 299.116px 197.556px;"><g id="freepik--arm--inject-4" class="animable" style="transform-origin: 310.386px 260.703px;"><path d="M307.69,257.34a6.61,6.61,0,0,0-.29,2.51c.11,3.22.67,6.44.41,9.65-.27,3.42-1.88,6.54-1.86,10,0,2,2,4.45,3.79,2.23a6.07,6.07,0,0,0,.87-1.58c.52-1.19,1-2.38,1.54-3.57.09,3.28-1.68,6.4-.78,9.67.42,1.56,2.16,2.9,3.64,2.23a4.23,4.23,0,0,0,1.82-2.51l1.38-3.53a46.72,46.72,0,0,0,1.73-5,23.06,23.06,0,0,0-3-18.2,9,9,0,0,0-3.59-3.45c-1.84-.84-4.77-.71-5.67,1.44Z" style="fill: rgb(55, 71, 79); transform-origin: 313.298px 271.983px;" id="elok4acuytule" class="animable"></path><path d="M322.7,247.73c-.48-3.3-1.29-11.51-2.05-19.33-6.09,0-12.27.34-18.34.08.4,1.2.15,2.8.24,4.06.13,1.93.24,3.85.27,5.77a43.28,43.28,0,0,1-1.06,11.12c-.56,2.27-1.37,4.47-1.95,6.73-1.14,4.45-1.35,9.07-2.32,13.55a7.63,7.63,0,0,0-.28,2.16c.25,3.15,3.67,2.27,5.17.75,2-2,2.23-4.7,3.3-7.19.52-1.21,1.6-5.75,3.45-4.88,2.09,1,3.21,3.44,4.17,5.41a29.2,29.2,0,0,1,2.27,7.89c.79,4.24-1.48,9.09-2.15,13.24-.35,2.18-.17,4,1.65,5.42a2,2,0,0,0,1.93.4,3,3,0,0,0,1.31-1.49,41.82,41.82,0,0,0,3.88-8.87c1.73-6.67,1.37-14.09,1.28-20.92A107.45,107.45,0,0,0,322.7,247.73Z" style="fill: rgb(69, 90, 100); transform-origin: 310.386px 260.703px;" id="el2ld9fb97ebj" class="animable"></path></g><path d="M274.67,102.21c19.44-1.17,28.86,7.55,34.57,26.53s9.59,37.13,11.43,46.86,1.77,50.85,1.77,50.85l-26.25,3.42-6.87-50.73L278.7,144.37Z" style="fill: rgb(230, 230, 230); transform-origin: 298.555px 165.988px;" id="el2uaov1k2a1h" class="animable"></path><path d="M294.33,216.16s3.1,4.58,14.56,3.52,13.49-6.19,13.49-6.19l1.13,27.11s-1,5.84-12.08,6.69-13.65-4.71-13.65-4.71Z" style="fill: rgb(240, 240, 240); transform-origin: 308.92px 230.434px;" id="elrhw1i6durpe" class="animable"></path><path d="M323.32,236.07l-.08-1.89a16.5,16.5,0,0,1-4,2.39,27.31,27.31,0,0,1-6,1.57,31.23,31.23,0,0,1-12.88-.36,15.74,15.74,0,0,1-3.2-1.25l-.11-.06.24,1.83a17,17,0,0,0,2,.81,24.41,24.41,0,0,0,6.95,1.08,34.3,34.3,0,0,0,13.51-2.13A16.83,16.83,0,0,0,323.32,236.07Z" style="fill: rgb(0, 255, 136); transform-origin: 310.185px 237.202px;" id="el77rkvwqt7zx" class="animable"></path><path d="M295.49,225.07a17.92,17.92,0,0,0,2.89,1.23,24.77,24.77,0,0,0,6.95,1.08,34.13,34.13,0,0,0,13.51-2.14,16,16,0,0,0,3.93-2.25l-.08-1.88a16.54,16.54,0,0,1-4.37,2.64,26.77,26.77,0,0,1-6,1.57,31.23,31.23,0,0,1-12.88-.35,15.74,15.74,0,0,1-3.2-1.25c-.33-.17-.65-.37-1-.57Z" style="fill: rgb(0, 255, 136); transform-origin: 309.005px 224.262px;" id="el9lmgjrufqsd" class="animable"></path><path d="M305.77,233.78a34.12,34.12,0,0,0,13.51-2.13,16.47,16.47,0,0,0,3.77-2.12l-.08-1.89a16.57,16.57,0,0,1-4.21,2.52,26.77,26.77,0,0,1-6,1.57,31.4,31.4,0,0,1-12.88-.35,16.35,16.35,0,0,1-3.2-1.25c-.19-.1-.36-.21-.54-.32l.25,1.87a16.55,16.55,0,0,0,2.46,1A24.07,24.07,0,0,0,305.77,233.78Z" style="fill: rgb(0, 255, 136); transform-origin: 309.595px 230.728px;" id="el6rxe7m4zhbq" class="animable"></path></g><g id="freepik--Bottom--inject-4" class="animable" style="transform-origin: 256.508px 334.698px;"><path d="M207.33,223.3c-4.66,2.6-4.7,20.73-5.07,33.68-1,33.88-.3,50.71-.67,54.82s-2.32,17.05-3.1,34.9c-1,22.21-1.55,31.88-1.55,31.88s3.81,3.5,11.77,4.55a86.89,86.89,0,0,0,16.74.23s11.18-32.2,14.11-44.51c5.61-23.63,10.58-47.05,10.58-47.05l5.79,28a92.29,92.29,0,0,0,.22,29.86c3.19,17.7,4.84,29.66,4.84,29.66s10.59,3.84,17.92,3.68c9.45-.2,12-2.76,12-2.76s4.34-43.57,5.4-66.41c1-21.44,6.46-93.28.16-93.25Z" style="fill: rgb(240, 240, 240); transform-origin: 248.2px 302.119px;" id="elqubige3ic0j" class="animable"></path><path d="M257.53,257.44l-7.39,34.36,5.79,28-.7-26.27,7-30.48c12.79-4,20.82-11.19,22.87-17.83C271.38,257.56,257.53,257.44,257.53,257.44Z" style="fill: rgb(224, 224, 224); transform-origin: 267.62px 282.51px;" id="el0p40lphr1mt" class="animable"></path><path d="M252.31,281.7l-.43,2c-.72.31-1.45.59-2.18.86a43.91,43.91,0,0,1-7,1.71c-8.83,1.51-18.15,1.4-26.74-1.36a41.14,41.14,0,0,1-14.09-7.72c0-.76,0-1.54,0-2.33a35.12,35.12,0,0,0,5.73,4.32,45.56,45.56,0,0,0,23,6.24,66.48,66.48,0,0,0,13-1.14,44.4,44.4,0,0,0,6-1.52A27.21,27.21,0,0,0,252.31,281.7Z" style="fill: rgb(250, 250, 250); transform-origin: 227.09px 281.05px;" id="el18337omu72a" class="animable"></path><path d="M253.91,274.28l-.45,2.06a27.13,27.13,0,0,1-3.25,1.35,45,45,0,0,1-7.05,1.72c-8.83,1.51-18.15,1.4-26.74-1.36A40.88,40.88,0,0,1,201.94,270c0-.76,0-1.54.05-2.32a35.72,35.72,0,0,0,6.1,4.67,45.45,45.45,0,0,0,23,6.23,66.47,66.47,0,0,0,13-1.13,46,46,0,0,0,6-1.52,30,30,0,0,0,2.84-1.13C253.24,274.62,253.58,274.46,253.91,274.28Z" style="fill: rgb(250, 250, 250); transform-origin: 227.925px 274.03px;" id="elfrqj6a5p2xr" class="animable"></path><path d="M255.58,266.51l-.45,2.1c-.26.15-.52.29-.8.42a31.26,31.26,0,0,1-3.27,1.36A43.91,43.91,0,0,1,244,272.1c-8.83,1.51-18.15,1.41-26.74-1.36a40.9,40.9,0,0,1-15.16-8.65c0-.79,0-1.58.07-2.38a37,37,0,0,0,6.75,5.31,45.62,45.62,0,0,0,23,6.24,67.27,67.27,0,0,0,13-1.14,44.4,44.4,0,0,0,6-1.52,27.51,27.51,0,0,0,2.84-1.13q.76-.35,1.5-.75Z" style="fill: rgb(250, 250, 250); transform-origin: 228.84px 266.391px;" id="eljyr7tfwphmk" class="animable"></path><path d="M298.79,267c0,.8-.07,1.61-.1,2.42-.52.41-1.05.81-1.58,1.21-7.19,5.36-15.55,9.49-24.44,10.93a39.81,39.81,0,0,1-20-1.67l.37-1.71a35.8,35.8,0,0,0,9.56,2.06A45.4,45.4,0,0,0,286,275.32a66.79,66.79,0,0,0,11-6.9C297.63,268,298.21,267.46,298.79,267Z" style="fill: rgb(250, 250, 250); transform-origin: 275.73px 274.572px;" id="elz431ya0bawa" class="animable"></path><path d="M299.3,252.12c0,.8,0,1.59-.07,2.38-.7.58-1.4,1.13-2.12,1.67-7.19,5.36-15.55,9.49-24.44,10.92a41,41,0,0,1-17.05-.72h0l.37-1.73a35.31,35.31,0,0,0,6.65,1.15A45.4,45.4,0,0,0,286,260.89a66.79,66.79,0,0,0,11-6.9C297.8,253.39,298.55,252.77,299.3,252.12Z" style="fill: rgb(250, 250, 250); transform-origin: 277.46px 259.892px;" id="elsvnxuosmyys" class="animable"></path><path d="M299.08,259.52c0,.79-.05,1.6-.08,2.4-.63.5-1.26,1-1.89,1.46-7.19,5.37-15.55,9.49-24.44,10.93a40.33,40.33,0,0,1-18.52-1.16l.37-1.72a37.15,37.15,0,0,0,8.12,1.57A45.41,45.41,0,0,0,286,268.1a65.48,65.48,0,0,0,11-6.9C297.72,260.66,298.41,260.1,299.08,259.52Z" style="fill: rgb(250, 250, 250); transform-origin: 276.615px 267.204px;" id="el40ul5uk03wt" class="animable"></path><path d="M209.19,309.21c-3.69,4.21-5.33,9.93-5.4,15.53-.06,4.48.94,9.21,4,12.51,2.22,2.42,5.85,3.73,9,4.58a19.5,19.5,0,0,0,10.66-.06,12.1,12.1,0,0,0,4.83-2.58,14.05,14.05,0,0,0,2.94-4.34,28.47,28.47,0,0,0,2.94-14.93,19.4,19.4,0,0,0-6.94-13.3C224.44,301.35,214.7,302.94,209.19,309.21Z" style="fill: rgb(224, 224, 224); transform-origin: 221.015px 322.995px;" id="elk3vy78wn6w" class="animable"></path><path d="M234.18,314.7l2.89.58a20.33,20.33,0,0,0-.8-2l-.72-.14-8.4-1.68c-5.58-1.12-11.15-2.28-16.74-3.32l-.16,0c-.37.35-.72.72-1.06,1.1l-.29.37c2.81.61,5.62,1.17,8.43,1.74Zm-10.3,18.65c-5.56-1.21-11.11-2.47-16.68-3.6l-3.08-.62c.09.59.22,1.17.36,1.75l1,.24c2.86.66,5.73,1.29,8.6,1.93l16.79,3.67,2.88.63a17.06,17.06,0,0,0,1-1.65l-2.46-.52Zm.73-4.42c-5.58-1.11-11.15-2.28-16.74-3.32l-4.08-.74c0,.54,0,1.08,0,1.63.78.17,1.56.35,2.34.51,2.87.62,5.75,1.2,8.63,1.78l16.85,3.39L236,333c.23-.57.45-1.15.66-1.73l-3.59-.7Zm-7.75-13.26,16.85,3.38,4.38.88h0c-.06-.64-.16-1.27-.28-1.9l-2.72-.53-8.41-1.68c-5.58-1.12-11.15-2.28-16.74-3.32l-2.74-.5a16.56,16.56,0,0,0-.82,1.49l1.85.41C211.1,314.51,214,315.09,216.86,315.67Zm8.55,8.81c-5.57-1.12-11.15-2.28-16.74-3.32-1.49-.28-3-.56-4.49-.82-.08.51-.15,1-.2,1.56l3,.66c2.87.62,5.75,1.2,8.63,1.78l16.85,3.38,4.84,1,.08,0c.14-.6.27-1.19.38-1.8l-3.93-.75Zm9-2.65L226,320.15c-5.58-1.12-11.15-2.28-16.74-3.32-1.33-.25-2.66-.5-4-.73-.18.5-.33,1-.47,1.52l2.75.61c2.87.62,5.75,1.19,8.63,1.78L233,323.39l4.84,1,.22.05c.06-.62.09-1.24.1-1.86C236.92,322.31,235.66,322.08,234.41,321.83Z" style="fill: rgb(235, 235, 235); transform-origin: 220.975px 322.745px;" id="elbgh4vouvo7v" class="animable"></path><path d="M276.38,311.68c-.13,1.6-.16,3.2-.15,4.79,0,4.24.44,8.83,3.26,12a9.64,9.64,0,0,0,4.31,2.78c4.07,1.27,8.82-1,11.11-4.55,3-4.68,2.89-11.5,2.79-16.84a27.13,27.13,0,0,0-1.08-8.33c-1.34-3.9-5-7.53-9.42-6.6-3.82.8-7.08,4.46-8.68,7.86A25.31,25.31,0,0,0,276.38,311.68Z" style="fill: rgb(224, 224, 224); transform-origin: 286.983px 313.194px;" id="ele0ig094up39" class="animable"></path><path d="M285.21,308.54c4-1.35,8.09-2.68,12.12-4.05a17.52,17.52,0,0,0-.36-1.75l-3.17,1.05-16.31,5.42-.87.29c-.1.66-.17,1.32-.22,2l.68-.23Z" style="fill: rgb(235, 235, 235); transform-origin: 286.865px 307.12px;" id="elwlc4gs5czwr" class="animable"></path><path d="M277.91,304.25c-.26.69-.48,1.39-.67,2.1l6.41-2c4.17-1.31,8.34-2.61,12.5-3.94a12.92,12.92,0,0,0-.88-1.58l-2.95.92Z" style="fill: rgb(235, 235, 235); transform-origin: 286.695px 302.59px;" id="elax6mop706eu" class="animable"></path><path d="M296.46,323.38a17.69,17.69,0,0,0,.57-2.08L284,325.64l-4.69,1.56-.61.2a9.3,9.3,0,0,0,.83,1.07c.14.16.3.29.45.44,1.2-.41,2.4-.83,3.6-1.23l8.14-2.71Z" style="fill: rgb(235, 235, 235); transform-origin: 287.865px 325.105px;" id="elr6qoc54k809" class="animable"></path><path d="M286.72,312.81c3.66-1.22,7.32-2.43,11-3.66,0-.62,0-1.23-.08-1.85l-2.3.76L279,313.48l-2.75.92c0,.64,0,1.28,0,1.92l2.36-.8Z" style="fill: rgb(235, 235, 235); transform-origin: 286.985px 311.81px;" id="el48u94j1nlpr" class="animable"></path><path d="M281.79,323.67l8.14-2.71,7.56-2.5c.07-.65.12-1.31.16-2l-15.44,5.13-4.69,1.56-.59.2a17,17,0,0,0,.56,1.75C278.93,324.66,280.36,324.15,281.79,323.67Z" style="fill: rgb(235, 235, 235); transform-origin: 287.29px 320.78px;" id="eltzang1cvsws" class="animable"></path><path d="M288.36,316.86l9.38-3.12c0-.64,0-1.27,0-1.89l-.78.26-16.31,5.42L276.3,319c0,.62.1,1.25.17,1.87l3.76-1.28Z" style="fill: rgb(235, 235, 235); transform-origin: 287.02px 316.36px;" id="eljbvifkq2cje" class="animable"></path><path d="M259.67,409.46c.65.66,1.68,1.24,2.5.79.36-.19.61-.56,1-.72a1.65,1.65,0,0,1,1.81.7c.41.54.63,1.2,1.09,1.71a5.37,5.37,0,0,0,2.15,1.21,1.87,1.87,0,0,0,1,.18c.78-.12,1.15-1.14,1.94-1.21,1.17-.11,1,1,1.16,1.67a2.86,2.86,0,0,0,1.34,1.92,3.25,3.25,0,0,0,3.22,0,4.52,4.52,0,0,1,1.12-.61,1.66,1.66,0,0,1,1.73.84,3,3,0,0,1,.25,1.93,1.11,1.11,0,0,0,0,.6,1.07,1.07,0,0,0,.46.46,15.66,15.66,0,0,0,2.18,1.16,1.51,1.51,0,0,0,1.29.1,3.51,3.51,0,0,0,.54-.55,1.55,1.55,0,0,1,1.74-.14,2.23,2.23,0,0,1,1,1.42c.16.59.11,1.52.63,2a6.65,6.65,0,0,0,1.61.7,4.09,4.09,0,0,0,1.75.45c.87-.05,1.22-.7,1.95-1a1.54,1.54,0,0,1,1.95.81c.18.51,0,1.12.39,1.54a1.77,1.77,0,0,0,.76.45,15,15,0,0,0,1.72.55,2.9,2.9,0,0,0,2.69-.28c.16-.17.28-.36.44-.53a1.93,1.93,0,0,1,1.73-.54,1.8,1.8,0,0,1,1.35,1.15c.33,1,.9,1.18,2,1.34a22.05,22.05,0,0,0,3,.08c1.25,0,1.06-1,1.85-1.65a2.09,2.09,0,0,1,2.49-.09c.21.16.38.37.6.53a3.54,3.54,0,0,0,2.78.2,1.87,1.87,0,0,0,1.15-.53,2.64,2.64,0,0,0,.28-.77,2.57,2.57,0,0,1,2-1.69,1.6,1.6,0,0,1,.87.06,4.68,4.68,0,0,1,.64.38,2.66,2.66,0,0,0,2,.17,7.61,7.61,0,0,0,1.85-.86,3.48,3.48,0,0,0,1.1-.86,3,3,0,0,0,.38-1.86c0-1.5-.07-3.16-1.12-4.39a12.48,12.48,0,0,0-4.26-2.8c-10.13-4.76-21.42-6.78-32.25-9.89-7.94-2.27-15.94-5.18-24.23-4.76-2.61.14-6.43.33-7.29,3A7.6,7.6,0,0,0,259.67,409.46Z" style="fill: rgb(69, 90, 100); transform-origin: 292.388px 413.224px;" id="eldkta5r8ym4" class="animable"></path><path d="M254.94,339.06c-2.23.47-1.07,5.7,0,12.46s2.69,17.73,3.8,25,.57,9.8-.36,15.92-.74,9.43,0,10.73,3.16,4.1,9.23,5.55,7.35,1.62,13.29,4.78c3.89,2.07,7.75,6.1,20.21,8.61,10.12,2,23.31-1.29,25.45-4.95.84-7.86-2.2-11.59-9-15.25-8.69-4.67-19.54-10.25-22.5-14.21s-2.83-7.82-1.82-20.55c1.08-13.51,1.86-22.49,2.23-24.92s-.94-3.08-.94-3.08l-.2,2.54s-7,3.09-19,3.27a47.34,47.34,0,0,1-20.33-4.06Z" style="fill: rgb(224, 224, 224); transform-origin: 290.181px 380.888px;" id="eltg9oo3r0yth" class="animable"></path><g id="elbwa3epy0r4l"><path d="M254.94,339.06c-2.23.47-1.07,5.7,0,12.46s2.69,17.73,3.8,25,.57,9.8-.36,15.92-.74,9.43,0,10.73,3.16,4.1,9.23,5.55,7.35,1.62,13.29,4.78c3.89,2.07,7.75,6.1,20.21,8.61,10.12,2,23.31-1.29,25.45-4.95.84-7.86-2.2-11.59-9-15.25-8.69-4.67-19.54-10.25-22.5-14.21s-2.83-7.82-1.82-20.55c1.08-13.51,1.86-22.49,2.23-24.92s-.94-3.08-.94-3.08l-.2,2.54s-7,3.09-19,3.27a47.34,47.34,0,0,1-20.33-4.06Z" style="opacity: 0.05; transform-origin: 290.181px 380.888px;" class="animable"></path></g><path d="M310.7,399.66c.8-.07,1.63-.1,2.48-.11l-1.51-.81c-13.4.7-20.27,9.94-22.39,19.63l.83.38c1.36-6.4,4.86-12.62,11-16.18,8,3.18,11.59,12.07,11.72,19.87l.9-.12c-.17-7.85-3.77-16.76-11.67-20.26a22.9,22.9,0,0,1,7.07-2.22c8.8,4.34,13.7,8.83,14.32,19.76.31-.15.6-.3.87-.46C323.64,408.59,319,403.92,310.7,399.66Z" style="fill: rgb(240, 240, 240); transform-origin: 306.8px 410.59px;" id="elyiqg8897aid" class="animable"></path><path d="M294.23,355.56c0-.64.11-1.26.16-1.86a58.53,58.53,0,0,1-14.28,3.52,60.19,60.19,0,0,1-9.3.36,54.81,54.81,0,0,1-9.4-1.09,29.18,29.18,0,0,1-6-1.95c.08.47.15.95.23,1.45a26,26,0,0,0,4.35,1.63,46.48,46.48,0,0,0,10,1.58,60.67,60.67,0,0,0,18.6-1.87C290.51,356.83,292.39,356.23,294.23,355.56Z" style="fill: rgb(0, 255, 136); transform-origin: 274.9px 356.495px;" id="el4uu1nvr6oge" class="animable"></path><path d="M254,345.45c.08.54.17,1.11.26,1.7l.73.48a22.39,22.39,0,0,0,4.25,2,45.08,45.08,0,0,0,9.63,2.16,57.09,57.09,0,0,0,20.1-1.13,53.37,53.37,0,0,0,5.33-1.54l.52-.19c.05-.65.11-1.24.16-1.8l-.6.23q-2.28.83-4.63,1.45a56.14,56.14,0,0,1-9.57,1.63A53.63,53.63,0,0,1,261,348.71a26.39,26.39,0,0,1-4.55-1.75,18.38,18.38,0,0,1-2.42-1.44Z" style="fill: rgb(0, 255, 136); transform-origin: 274.49px 348.829px;" id="elz8nqvd684hs" class="animable"></path><path d="M285.73,383a22.22,22.22,0,0,0-10.52,5.19,3.45,3.45,0,0,0-1.42,2.55,3.57,3.57,0,0,0,.83,1.77,26.62,26.62,0,0,0,5.16,5.23,6.06,6.06,0,0,0,2,1.1c1.78.49,3.61-.5,5.18-1.45a33.25,33.25,0,0,1,7.57-3.77,11.93,11.93,0,0,1,8.37.23c-2.38-1.11-4.67-4.27-6.2-6.24-1.11-1.45-2.05-3.85-3.89-4.65s-4.43-.4-6.22-.11C286.28,382.86,286,382.91,285.73,383Z" style="fill: rgb(0, 255, 136); transform-origin: 288.345px 390.73px;" id="el61s14fkz2q6" class="animable"></path><path d="M296.67,387.58c-.61-.8-1.17-1.87-1.86-2.82a11.55,11.55,0,0,0-4.61-.69c-4.79.23-9.59,1.62-13.12,4.68a2.05,2.05,0,0,0-.85,1.33,2,2,0,0,0,.52,1.22,28.25,28.25,0,0,0,4.76,5.08,2.37,2.37,0,0,0,2.81.32,18,18,0,0,0,3-1.72,22.47,22.47,0,0,1,6.31-2.71,25.76,25.76,0,0,1,6.53-.52A46,46,0,0,1,296.67,387.58Z" style="fill: rgb(69, 90, 100); transform-origin: 288.195px 390.536px;" id="elo7qpqxvedii" class="animable"></path><path d="M186,426.81a16.09,16.09,0,0,0,.52,6.84,2.94,2.94,0,0,0,.58,1.05c.53.56,1.07.29,1.65.54s.56.88.59,1.61a5.75,5.75,0,0,0,3.58,4.88,2.34,2.34,0,0,0,1,.22,13.27,13.27,0,0,1,1.5-.3,1.78,1.78,0,0,1,1.41,1.35,9,9,0,0,0,.57,1.94c.61,1.08,2,1.47,3.33,1.65a2.36,2.36,0,0,0,1.37-.09c.3-.14.52-.39.81-.56a1.55,1.55,0,0,1,2.15.86c.1.4,0,.85.21,1.21.29.54,1.05.64,1.69.67l2.42.12c1.33.06,2.93,0,3.64-1.06.33-.5.38-1.13.68-1.66s1.09-.91,1.56-.51c.23.2.29.51.5.73.58.61,1.63.05,2.25-.52a10.24,10.24,0,0,0,1.52-1.64,9.6,9.6,0,0,0,1.23-3.89,115.18,115.18,0,0,0,1.7-14.07,44.46,44.46,0,0,0-.25-7.11,11.54,11.54,0,0,0-1-4.25c-.84-1.55-2.81-1.9-4.51-2.06-5.07-.46-10.25-.91-15.2.19a34.93,34.93,0,0,0-7.39,2.69,20.49,20.49,0,0,0-5.45,3.5,8,8,0,0,0-1.7,2.23,11.53,11.53,0,0,0-.9,4C186.1,425.87,186.05,426.34,186,426.81Z" style="fill: rgb(69, 90, 100); transform-origin: 204.175px 430.541px;" id="elcn20cbd50l4" class="animable"></path><path d="M198.41,348.53c-2.2,0-2,1.81-2.08,9s-.63,25.81-.7,29.34-1.36,10-1.45,12.14-2.55,9.52-4.84,14.28-7.05,21.05,12.17,29.65,20.69-15.69,20.69-23.36a150,150,0,0,1,3.1-27.24c1.8-8.7,10-30.23,11.28-34.81.85-3.13-1.24-3.61-1.24-3.61l-.56,1.76s-3.92,4-17,2.31-19.45-7.68-19.45-7.68Z" style="fill: rgb(224, 224, 224); transform-origin: 211.941px 396.644px;" id="el3zt26tw2miq" class="animable"></path><g id="elcof1zfgrz8l"><path d="M198.41,348.53c-2.2,0-2,1.81-2.08,9s-.63,25.81-.7,29.34-1.36,10-1.45,12.14-2.55,9.52-4.84,14.28-7.05,21.05,12.17,29.65,20.69-15.69,20.69-23.36a150,150,0,0,1,3.1-27.24c1.8-8.7,10-30.23,11.28-34.81.85-3.13-1.24-3.61-1.24-3.61l-.56,1.76s-3.92,4-17,2.31-19.45-7.68-19.45-7.68Z" style="opacity: 0.05; transform-origin: 211.941px 396.644px;" class="animable"></path></g><path d="M203.8,391a26.21,26.21,0,0,1,6.68.2,25,25,0,0,1,6.91,2.4,6.12,6.12,0,0,1,2.4,1.81c.66,1.06.25,2.4.07,3.53-.45,2.76-1,5.52-1.64,8.23-.17.7-.33.84-1.05.56s-1.3-.49-2-.71c-1.28-.43-2.59-.79-3.91-1.12a39.57,39.57,0,0,0-6.68-1.07,41.73,41.73,0,0,0-6.8,0,28.21,28.21,0,0,0-3.42.51c-.55.12-2.48,1-2.18,0a34.42,34.42,0,0,0,1.42-7.64,9.84,9.84,0,0,1,.37-2.47C195.15,392,200.69,391.21,203.8,391Z" style="fill: rgb(0, 255, 136); transform-origin: 206.15px 399.37px;" id="elr2wxd5zrtt" class="animable"></path><path d="M218.49,397.64a2.44,2.44,0,0,0-.36-1.64,2.57,2.57,0,0,0-1-.69,27.34,27.34,0,0,0-12.58-2.8,20,20,0,0,0-10.7,3.38,16.42,16.42,0,0,0-.2,1.84,34.4,34.4,0,0,1-1.09,6.44h.06a47.14,47.14,0,0,1,21.1.66c.87.23,1.74.49,2.64.64a1,1,0,0,0,.74-.07.91.91,0,0,0,.32-.56A31.89,31.89,0,0,0,218.49,397.64Z" style="fill: rgb(69, 90, 100); transform-origin: 205.536px 399.008px;" id="elsqnlnipe0qq" class="animable"></path><path d="M209.82,414.48a34,34,0,0,0-21.7,2.1c-.1.34-.2.69-.29,1.06a34.64,34.64,0,0,1,13.22-3.21,112.32,112.32,0,0,0-6,24.71l.83.62c.94-8.13,3.56-19.08,6.17-25.35a29.48,29.48,0,0,1,7.56.88c.23.06.44.14.66.21,0,2.54-.34,19.11-2.08,29.27l.91,0c1.68-9.93,2-25.75,2.06-29a22.76,22.76,0,0,1,11,7.54c0-.46,0-.9.06-1.33A23.93,23.93,0,0,0,209.82,414.48Z" style="fill: rgb(240, 240, 240); transform-origin: 205.025px 429.178px;" id="ely6aaxzsc8ki" class="animable"></path><path d="M196.33,357.56c0,.53,0,1.14,0,1.79a24.09,24.09,0,0,0,4.3,2.32,59.61,59.61,0,0,0,9.09,3,48.29,48.29,0,0,0,19.66,1.07,36.31,36.31,0,0,0,4.92-1.18c.22-.65.44-1.27.64-1.86-.18.07-.36.15-.55.21a35.87,35.87,0,0,1-4.22,1.11,40.77,40.77,0,0,1-9,.72,57.71,57.71,0,0,1-18.38-3.83,27.16,27.16,0,0,1-6.46-3.37Z" style="fill: rgb(0, 255, 136); transform-origin: 215.635px 361.915px;" id="elebg7iosf0gh" class="animable"></path><path d="M224.33,374.13a55.07,55.07,0,0,0,7-1.16l.66-1.89a59.76,59.76,0,0,1-6.68,1.32,49.42,49.42,0,0,1-8.77.38A41.86,41.86,0,0,1,200.86,369a36.45,36.45,0,0,1-3.7-2c-.34-.21-.68-.44-1-.67,0,.54,0,1.08,0,1.63a34.77,34.77,0,0,0,3.17,1.88,38.36,38.36,0,0,0,7.54,3A47,47,0,0,0,224.33,374.13Z" style="fill: rgb(0, 255, 136); transform-origin: 214.075px 370.381px;" id="elcmjsznwbdv5" class="animable"></path></g><g id="freepik--Top--inject-4" class="animable" style="transform-origin: 226.998px 149.94px;"><g id="freepik--Chest--inject-4" class="animable" style="transform-origin: 251.564px 169.038px;"><path d="M207.33,217.58v5.72s10,11.56,43.06,12.51c34.62,1,46.05-15.2,46.05-15.2v-4.94Z" style="fill: rgb(69, 90, 100); transform-origin: 251.885px 225.762px;" id="el7mybpr5fafo" class="animable"></path><path id="freepik--chest--inject-4" d="M252.14,107.44c-17.49,5-26.58,7.27-39,14-11.41,6.14-12.08,17.54-8.56,49.23.56,5,.47,16.25-.73,27.12-1,9.19.57,17,3.53,19.82,4.31,3.53,21,14.91,53.72,11.69,25.68-2.53,35.2-13.6,35.2-13.6,4.67-4.66,4.23-20.61,4-43.16-.28-33,2-58.72-13.42-67.09C276.54,99.8,270.23,102.27,252.14,107.44Z" style="fill: rgb(240, 240, 240); transform-origin: 251.564px 166.044px;" class="animable"></path><path d="M300.32,176.06c0-.16,0-.31,0-.46-26.16,18.7-71.85,14.71-95.46,1.23h0c0,.34,0,.7,0,1.06v.05c12.39,6.94,35.93,11.32,52.45,11.32.66,0,1.32,0,2,0a398.71,398.71,0,0,1,.24,40.12l.94,0a398.76,398.76,0,0,0-.23-40.1,76.33,76.33,0,0,0,34.19-8.81c.29,3.56,1.55,21.29-.48,37.59.42-.34.77-.66,1.07-.94,1.95-16.88.51-34.89.32-37.14,1.7-1,3.37-2,5-3.14Z" style="fill: rgb(224, 224, 224); transform-origin: 252.61px 202.49px;" id="elns35x8f49h" class="animable"></path></g><g id="freepik--Head--inject-4" class="animable" style="transform-origin: 256.359px 96.0555px;"><path d="M234.85,73.19s-3.78.62-5.86,5.65c-1,2.53-1.56,7,3,19.34a51.15,51.15,0,0,0,7.24,13.4,6.23,6.23,0,0,0,3.86,2.58L242,104.48,241,97.76s5-5.42,5-10.32c.07-6.3-2.67-9.63-2.67-9.63Z" style="fill: rgb(38, 50, 56); transform-origin: 237.149px 93.675px;" id="elubxu6cufioa" class="animable"></path><path d="M233.56,73.63c-3-9.16,16.85-20.69,27.06-13.69,3.85-4.73,12.34-2.11,12.91,3,3.15-1.31,7.46,3.46,5.85,7.16,2.37-.71,6.13,3,3.63,6.16-1.8,2.28-1.35,4.27,1.41,4.78-.39,3.28-6.27,3.44-7.21,1-.13,1.92-1.51,1-3-.27-10.05-.61-20.48.42-30.65.36Z" style="fill: rgb(38, 50, 56); transform-origin: 258.837px 70.5845px;" id="eloytlsnmam" class="animable"></path><path d="M234.4,106.69c4.24,1.54,5.67-1.36,5.67-1.36l.47,18.63c8.71,15.58,31.57,12.89,22-.1l-.08-5.6a52.06,52.06,0,0,0,6.76-.51,11.57,11.57,0,0,0,9.31-8.81c1.86-7.18,1.6-18.66-1.25-30.8-.55-2.35-1.59-4.9-3.76-5.94-5.37-2.58-10.25,1.31-17.65,4.32-3.06,1.25-10.52,1.88-12.5,1,2.64,2.84,1.24,10.31.58,12.68-.95,3.41-1.75,4.78-2.45,4.95-2,.48-2.75-2.2-4.54-3s-5.66-1.43-7.71,3.37C227.93,98.52,229.53,104.93,234.4,106.69Z" style="fill: rgb(200, 133, 106); transform-origin: 254.262px 103.003px;" id="elvwg70x5t15n" class="animable"></path><path d="M256.55,117.64c-11.88-2.19-14.65-8.15-14.65-8.15.85,6.48,10.95,12,20.56,11.49l0-2.72S261.35,118.53,256.55,117.64Z" style="fill: rgb(175, 97, 82); transform-origin: 252.18px 115.251px;" id="elhmrbhbk6x5v" class="animable"></path><path d="M257.18,83.25l-4.76,2.45a2.83,2.83,0,0,1,1.2-3.71A2.6,2.6,0,0,1,257.18,83.25Z" style="fill: rgb(38, 50, 56); transform-origin: 254.661px 83.7025px;" id="elxznc4l2feq" class="animable"></path><path d="M274.64,84.28l-5-2.08a2.59,2.59,0,0,1,3.44-1.52A2.84,2.84,0,0,1,274.64,84.28Z" style="fill: rgb(38, 50, 56); transform-origin: 272.228px 82.3795px;" id="elpv8ag9qn6hj" class="animable"></path><path d="M258.17,102.94l7.57,1.2a3.67,3.67,0,0,1-4.24,3.25A4,4,0,0,1,258.17,102.94Z" style="fill: rgb(175, 97, 82); transform-origin: 261.939px 105.189px;" id="elmrpb5wujjd" class="animable"></path><path d="M263,107.33a3.94,3.94,0,0,0-3.91-3,3.86,3.86,0,0,0-.76.1,4,4,0,0,0,3.22,2.92A3.7,3.7,0,0,0,263,107.33Z" style="fill: rgb(255, 168, 167); transform-origin: 260.665px 105.871px;" id="el0iopbx35pquj" class="animable"></path><path d="M254.66,89.48a2.18,2.18,0,1,0,2.07-2.3A2.19,2.19,0,0,0,254.66,89.48Z" style="fill: rgb(38, 50, 56); transform-origin: 256.837px 89.3574px;" id="elc96r36apmu" class="animable"></path><path d="M270.06,88.67a2.18,2.18,0,1,0,2.07-2.29A2,2,0,0,0,270.06,88.67Z" style="fill: rgb(38, 50, 56); transform-origin: 272.228px 88.5574px;" id="elbgoamesh8n5" class="animable"></path><path d="M263.67,85.08l.91,14.28,6.92-2.43A26.84,26.84,0,0,0,263.67,85.08Z" style="fill: rgb(175, 97, 82); transform-origin: 267.585px 92.22px;" id="el5hy568ghqlk" class="animable"></path></g><path d="M302.8,153.47a2.82,2.82,0,0,0-1-2.36h0l-4.2-3,0,0c-.72-.52-1.78-.45-3,.31-7.87,4.88-17.34,7.79-29.05,9.63a5.43,5.43,0,0,0-4.52,5.39l.44,12.7a4.38,4.38,0,0,0,1.78,3.43h0l4.25,3a4.15,4.15,0,0,0,3,.69c11.54-1.68,21.88-5.34,28.68-9.29,2.25-1.31,3.88-4.72,3.83-7.33Z" style="fill: rgb(0, 255, 136); transform-origin: 282.02px 165.542px;" id="elvpzven0evwa" class="animable"></path><g id="el028kts3gt1p1"><path d="M261.05,163.46l.44,12.7a4.38,4.38,0,0,0,1.78,3.43h0l4.25,3c.12.08.24.14.37.21V165l-6-4.43A5.16,5.16,0,0,0,261.05,163.46Z" style="opacity: 0.2; transform-origin: 264.47px 171.685px;" class="animable"></path></g><path d="M298.82,151.42c-7.86,4.88-17.34,7.79-29.05,9.63a5.41,5.41,0,0,0-4.51,5.39l.43,12.7a4.22,4.22,0,0,0,4.85,4.15c11.54-1.68,21.88-5.34,28.68-9.29,2.25-1.31,3.88-4.72,3.83-7.33l-.25-13.2C302.75,150.86,301,150.05,298.82,151.42Z" style="fill: rgb(0, 255, 136); transform-origin: 284.155px 167.05px;" id="elr1jfodm9dkl" class="animable"></path><g id="el1p2ru5gjvdp"><path d="M298.82,151.42c-7.86,4.88-17.34,7.79-29.05,9.63a5.41,5.41,0,0,0-4.51,5.39l.43,12.7a4.22,4.22,0,0,0,4.85,4.15c11.54-1.68,21.88-5.34,28.68-9.29,2.25-1.31,3.88-4.72,3.83-7.33l-.25-13.2C302.75,150.86,301,150.05,298.82,151.42Z" style="fill: rgb(255, 255, 255); opacity: 0.3; transform-origin: 284.155px 167.05px;" class="animable"></path></g><path d="M271.26,180.41c0-.4,0-.8,0-1.2s0-.66-.05-1q0-2.26-.15-4.53c-.06-1.47-.13-2.94-.22-4.41-.05-.81-.11-1.63-.17-2.44a12.14,12.14,0,0,0-.34-2.56c-.13-.39-1-.49-1,0a25.26,25.26,0,0,0,.14,4.51c.08,1.43.17,2.86.23,4.29s.11,2.78.15,4.17c0,.7,0,1.4,0,2.09,0,.5-.15,1.31.25,1.69a.74.74,0,0,0,.92.09.49.49,0,0,0,.25-.48v-.23Zm4.18-.93c0-.4,0-.8,0-1.2s-.05-.66-.06-1q0-2.26-.15-4.53c-.06-1.47-.13-2.94-.22-4.41,0-.81-.11-1.63-.17-2.44a12.14,12.14,0,0,0-.34-2.56c-.13-.39-1-.49-1,0a24.36,24.36,0,0,0,.15,4.51c.08,1.43.16,2.86.22,4.29s.12,2.78.15,4.17c0,.7,0,1.4,0,2.09,0,.5-.14,1.31.26,1.69a.73.73,0,0,0,.91.09.49.49,0,0,0,.25-.48v-.23Zm4.38-.87c0-.05,0-.1,0-.15,0-.4,0-.8,0-1.2s0-.66-.05-1q-.06-2.27-.15-4.53c-.06-1.47-.13-2.94-.22-4.41-.05-.81-.11-1.63-.17-2.44a11.53,11.53,0,0,0-.35-2.56c-.12-.39-1-.49-1,0a26.32,26.32,0,0,0,.15,4.52c.08,1.43.16,2.85.23,4.29s.11,2.78.15,4.17c0,.7,0,1.4,0,2.09,0,.49-.15,1.31.25,1.68a.73.73,0,0,0,.92.1.49.49,0,0,0,.25-.48Z" style="fill: rgb(0, 255, 136); transform-origin: 274.56px 171.609px;" id="elac2jyy1gs4" class="animable"></path><g id="eldz5n3w7vt87"><g style="opacity: 0.2; transform-origin: 274.148px 171.31px;" class="animable"><path d="M279,177.86c0-.4,0-.8,0-1.2s0-.66,0-1q-.06-2.26-.15-4.53c-.06-1.47-.14-2.94-.22-4.41q-.08-1.22-.18-2.43a14.61,14.61,0,0,0-.27-2.29.37.37,0,0,0-.33.31,26.32,26.32,0,0,0,.15,4.52c.08,1.43.16,2.85.23,4.29s.11,2.78.15,4.17c0,.7,0,1.4,0,2.09a5.64,5.64,0,0,0,0,1.29.63.63,0,0,0,.36-.11.52.52,0,0,0,.25-.48.22.22,0,0,0,0-.08Z" id="el007lxwnbzsk74" class="animable" style="transform-origin: 278.407px 170.335px;"></path><path d="M270.48,179.81c0-.4,0-.8,0-1.2s0-.66,0-1q-.06-2.26-.15-4.53c-.06-1.47-.13-2.94-.22-4.41-.05-.81-.11-1.62-.17-2.43a13.52,13.52,0,0,0-.28-2.29.36.36,0,0,0-.32.32,25.26,25.26,0,0,0,.14,4.51c.08,1.43.17,2.86.23,4.29s.11,2.78.15,4.17c0,.7,0,1.4,0,2.09a5.64,5.64,0,0,0,0,1.29.63.63,0,0,0,.36-.11.49.49,0,0,0,.25-.48V180A.76.76,0,0,0,270.48,179.81Z" id="el3f01ag5tlfe" class="animable" style="transform-origin: 269.889px 172.285px;"></path><path d="M274.67,178.88c0-.4,0-.8,0-1.2s0-.66-.05-1q-.06-2.26-.15-4.53c-.06-1.47-.13-2.94-.22-4.41-.05-.81-.11-1.62-.17-2.43a13.52,13.52,0,0,0-.28-2.29.36.36,0,0,0-.32.32,24.36,24.36,0,0,0,.15,4.51c.08,1.43.16,2.86.22,4.29s.12,2.78.15,4.17c0,.7,0,1.4,0,2.09a5.64,5.64,0,0,0,0,1.29.61.61,0,0,0,.36-.11.49.49,0,0,0,.25-.48v-.23Z" id="el02jwy91r5be6" class="animable" style="transform-origin: 274.053px 171.355px;"></path></g></g><path d="M289.5,160.67a1.74,1.74,0,0,1,.74,1.62,5.52,5.52,0,0,1-2.5,4.32,1.74,1.74,0,0,1-1.76.17l-1.6-.92a1.75,1.75,0,0,1-.73-1.61,5.51,5.51,0,0,1,2.5-4.32,1.74,1.74,0,0,1,1.76-.18Z" style="fill: rgb(38, 50, 56); transform-origin: 286.945px 163.267px;" id="el6jhhux9q7lh" class="animable"></path><path d="M287.74,166.61a1.53,1.53,0,0,1-2.5-1.44,5.54,5.54,0,0,1,2.5-4.33,1.78,1.78,0,0,1,1.77-.17,1.76,1.76,0,0,1,.73,1.62A5.52,5.52,0,0,1,287.74,166.61Z" style="fill: rgb(69, 90, 100); transform-origin: 287.732px 163.744px;" id="elpzcf4z23jc" class="animable"></path><path d="M299.66,156.89a1.75,1.75,0,0,1,.73,1.61,5.54,5.54,0,0,1-2.49,4.33,1.78,1.78,0,0,1-1.77.17l-1.59-.92a1.75,1.75,0,0,1-.73-1.61,5.54,5.54,0,0,1,2.49-4.33,1.78,1.78,0,0,1,1.77-.17Z" style="fill: rgb(224, 224, 224); transform-origin: 297.1px 159.485px;" id="elmho5xddn9x" class="animable"></path><path d="M297.9,162.83a1.78,1.78,0,0,1-1.77.17,1.75,1.75,0,0,1-.73-1.61,5.52,5.52,0,0,1,2.5-4.33,1.52,1.52,0,0,1,2.49,1.44A5.54,5.54,0,0,1,297.9,162.83Z" style="fill: rgb(245, 245, 245); transform-origin: 297.905px 159.923px;" id="elj2jnvb0cvk" class="animable"></path><path d="M289.5,170.66a1.74,1.74,0,0,1,.74,1.62,5.52,5.52,0,0,1-2.5,4.32,1.74,1.74,0,0,1-1.76.17l-1.6-.91a1.77,1.77,0,0,1-.73-1.62,5.51,5.51,0,0,1,2.5-4.32,1.74,1.74,0,0,1,1.76-.18Z" style="fill: rgb(38, 50, 56); transform-origin: 286.945px 173.257px;" id="el4an0g20wnwa" class="animable"></path><path d="M287.74,176.6a1.53,1.53,0,0,1-2.5-1.44,5.51,5.51,0,0,1,2.5-4.32,1.52,1.52,0,0,1,2.5,1.44A5.52,5.52,0,0,1,287.74,176.6Z" style="fill: rgb(69, 90, 100); transform-origin: 287.743px 173.712px;" id="eloslbrcuh6b" class="animable"></path><path d="M299.66,166.88a1.75,1.75,0,0,1,.73,1.61,5.54,5.54,0,0,1-2.49,4.33,1.78,1.78,0,0,1-1.77.17l-1.59-.92a1.75,1.75,0,0,1-.73-1.61,5.56,5.56,0,0,1,2.49-4.33,1.78,1.78,0,0,1,1.77-.17Z" style="fill: rgb(38, 50, 56); transform-origin: 297.1px 169.475px;" id="ely3w3psevzlb" class="animable"></path><path d="M297.9,172.82a1.78,1.78,0,0,1-1.77.17,1.75,1.75,0,0,1-.73-1.61,5.52,5.52,0,0,1,2.5-4.33,1.52,1.52,0,0,1,2.49,1.44A5.54,5.54,0,0,1,297.9,172.82Z" style="fill: rgb(69, 90, 100); transform-origin: 297.905px 169.913px;" id="elf4976p6am3j" class="animable"></path><path d="M262.46,165.57c-4.39.16-9.46,1-9.46,11.37,0,11.74-15.55,14.83-29.63,11.24s-18.51-9.47-18.51-9.47c0-2.16,0-4.21-.16-6.09,0,0-3.39.66-3.81,7.11s9.31,11.92,21.43,15.07,27.21.4,32.1-5.3c3.84-4.48,4.5-10,4.64-12.84.17-3.22,0-6.11,3.4-5.81C264.14,170.32,264.19,166.2,262.46,165.57Z" style="fill: rgb(69, 90, 100); transform-origin: 232.308px 180.847px;" id="elywn3qtehic" class="animable"></path><path d="M234.14,203.86a3.09,3.09,0,0,0-1.28,2.84,9.66,9.66,0,0,0,4.38,7.57,3.08,3.08,0,0,0,3.09.31l1.51-.88a3.06,3.06,0,0,0,1.28-2.83,9.68,9.68,0,0,0-4.38-7.58,3.08,3.08,0,0,0-3.09-.3Z" style="fill: rgb(0, 255, 136); transform-origin: 237.99px 208.783px;" id="el2do2iyspn1v" class="animable"></path><g id="elc416zejoiv"><path d="M234.14,203.86a3.09,3.09,0,0,0-1.28,2.84,9.66,9.66,0,0,0,4.38,7.57,3.08,3.08,0,0,0,3.09.31l1.51-.88a3.06,3.06,0,0,0,1.28-2.83,9.68,9.68,0,0,0-4.38-7.58,3.08,3.08,0,0,0-3.09-.3Z" style="fill: rgb(255, 255, 255); opacity: 0.3; transform-origin: 237.99px 208.783px;" class="animable"></path></g><path d="M237.24,214.27a2.66,2.66,0,0,0,4.37-2.52,9.68,9.68,0,0,0-4.37-7.58,2.67,2.67,0,0,0-4.38,2.53A9.66,9.66,0,0,0,237.24,214.27Z" style="fill: rgb(0, 255, 136); transform-origin: 237.236px 209.222px;" id="ellf0n3wm8n5" class="animable"></path><path d="M238.17,208.55c-.32-.65-1.15-1.9-2.13-2.13-2.22.35-8,.7-16.23-1.23-11.55-2.7-15.78-9.63-15.78-9.63.19-2.07.35-3.81.46-5.77,0,0-3.39.66-3.8,7.11s6.06,11.07,18,14.73c4.09,1.25,13.43,2.14,19.65,1.42a2.7,2.7,0,0,0,.56-1.9A5.89,5.89,0,0,0,238.17,208.55Z" style="fill: rgb(69, 90, 100); transform-origin: 219.791px 201.549px;" id="elg9k1vg4upzc" class="animable"></path><path d="M212.4,121.8c-18.89,5.11-22.81,9.93-29.67,19.81-5.63,8.12-19.24,28.76-26.58,42.69-6.09,11.57-6.27,16.53-3.44,21.37,6.17,10.58,29.71,31.22,29.71,31.22a24.78,24.78,0,0,0,15.65-5.1c7.88-5.82,5.39-10.85,5.39-10.85L188.07,199.5s18.86-24.63,23-29.64S224.82,139,212.4,121.8Z" style="fill: rgb(230, 230, 230); transform-origin: 184.738px 179.348px;" id="elleoc0c79nc" class="animable"></path><path d="M202.76,220.73a14,14,0,0,0,4.1,2.9,7.31,7.31,0,0,0-2.16,4S207,236.92,221,244.78c1.71,1,3.68,1.56,5,3a2.48,2.48,0,0,1,.7,1.36,2.32,2.32,0,0,1-1.14,2.05,4.08,4.08,0,0,1-2.27.73c-.79,0-1.8-.11-2.17.59a2.76,2.76,0,0,0-.2.71,3.4,3.4,0,0,1-2.09,2.1,7.36,7.36,0,0,1-4.44.47,2.55,2.55,0,0,0-1.06-.09,2.8,2.8,0,0,0-.65.32,8.3,8.3,0,0,1-5.59.85,28.27,28.27,0,0,1-6.58-2.13,17.53,17.53,0,0,1-3.61-2.14,32,32,0,0,1-7.6-9.38,8.94,8.94,0,0,0-1.09-1.91l-11.57-10.44A22.24,22.24,0,0,1,183.54,217c6.51-5.93,11.6-6.21,11.6-6.21S200.59,218.06,202.76,220.73Z" style="fill: rgb(69, 90, 100); transform-origin: 201.67px 233.91px;" id="elz9ll81nmyop" class="animable"></path><g id="elfqyjy94yzjm"><path d="M188.07,199.5c-5.6-7.46-14.14-10-22.88-9.34,7.7-3.48,18.49-1.89,25.36,6.1Z" style="opacity: 0.2; transform-origin: 177.87px 193.959px;" class="animable"></path></g><path d="M205.71,223l-14.05-18.9s-5.32-2.76-14.43,6.3-6.5,17.14-6.5,17.14l17.84,14.8C189.79,230.7,194.79,224,205.71,223Z" style="fill: rgb(240, 240, 240); transform-origin: 188.047px 223.022px;" id="elkm8mrblm0y" class="animable"></path><path d="M202.35,218.48l-1-1.35a22.37,22.37,0,0,0-8.57,3.78c-4.35,3.2-6.61,8.15-7.77,13.31a32.76,32.76,0,0,0-.67,4.62l1.52,1.26c0-.2,0-.4,0-.6a31,31,0,0,1,.51-4.18,28.25,28.25,0,0,1,2.62-7.75,17.77,17.77,0,0,1,10.09-8.25A20.7,20.7,0,0,1,202.35,218.48Z" style="fill: rgb(0, 255, 136); transform-origin: 193.345px 228.615px;" id="el7qlp76u84yo" class="animable"></path><path d="M181.24,230.38a28,28,0,0,1,2.63-7.75A17.75,17.75,0,0,1,194,214.38a24.13,24.13,0,0,1,4.56-1.06l-1-1.35a22,22,0,0,0-9.87,4c-4.36,3.2-6.62,8.15-7.77,13.31a31.91,31.91,0,0,0-.71,4.95v.29l1.55,1.29c0-.41,0-.83,0-1.25A32.67,32.67,0,0,1,181.24,230.38Z" style="fill: rgb(0, 255, 136); transform-origin: 188.885px 223.89px;" id="ely8v1z6xfw6" class="animable"></path><path d="M175.75,225.85a28.19,28.19,0,0,1,2.62-7.74,17.75,17.75,0,0,1,10.09-8.26,30,30,0,0,1,6.49-1.32l-.95-1.27a21.81,21.81,0,0,0-11.86,4.19c-4.36,3.2-6.61,8.14-7.77,13.3a31.85,31.85,0,0,0-.7,5c0,.08,0,.17,0,.26l1.56,1.28c0-.4,0-.81,0-1.21A30.93,30.93,0,0,1,175.75,225.85Z" style="fill: rgb(0, 255, 136); transform-origin: 184.31px 219.275px;" id="el15rg06n6gwu" class="animable"></path><g id="el57kvyr27qwb"><path d="M183.45,140.56a72.57,72.57,0,0,0,16.07,10.71l-5.78,8.23s-9.37-3.53-15.87-10.71Z" style="opacity: 0.2; transform-origin: 188.695px 150.03px;" class="animable"></path></g><path d="M172.12,155.6l-.15.16a12.08,12.08,0,0,0-3,6.68,3.88,3.88,0,0,0,1.33,3.78c2.17,1.54,5.44.34,7.26-1.23a11.4,11.4,0,0,0,3.56-7.31,5.67,5.67,0,0,0-.35-2.92c-.77-1.69-2.83-2.18-4.52-1.81A8,8,0,0,0,172.12,155.6Z" style="fill: rgb(0, 255, 136); transform-origin: 175.034px 159.884px;" id="elni8av7w3q9" class="animable"></path><g id="freepik--Helmet--inject-4" class="animable" style="transform-origin: 248.875px 93.1366px;"><path d="M286.73,108.57c-11-22.45-64.13-22.06-73.68,1.18a16.21,16.21,0,0,0-1.17,5,34.59,34.59,0,0,0,0,4.55,16.9,16.9,0,0,0,1.19,5.34c9.73,23.6,64.46,23.61,74.2,0a16.9,16.9,0,0,0,1.19-5.34,33.89,33.89,0,0,0,0-3.78A17.65,17.65,0,0,0,286.73,108.57Z" style="fill: rgb(69, 90, 100); transform-origin: 250.159px 117.182px;" id="elt3jc9wbvic" class="animable"></path><path d="M232.8,139.91c15.2,4,25.57,3.52,33.26,3.47,13.69-.09,16.24-1.07,18.65-6,2.65-5.4,2.86-11.23,3.61-16.86C283.46,130.74,263,146.22,232.8,139.91Z" style="fill: rgb(69, 90, 100); transform-origin: 260.56px 131.972px;" id="el9z46rmjk0zo" class="animable"></path><path d="M230.93,133.77a8.67,8.67,0,0,1-.55,3.33A4.82,4.82,0,0,0,230,139l.45.16a4,4,0,0,1,.31-1.9,9.42,9.42,0,0,0,.57-3.48,5.13,5.13,0,0,1,2.37-4.82l-.25-.36A5.49,5.49,0,0,0,230.93,133.77Z" style="fill: rgb(55, 71, 79); transform-origin: 231.85px 133.88px;" id="elabesgav79f5" class="animable"></path><path d="M250.15,135.47c-9.43,0-18.87-2.07-26.05-6.22h0c-7-4-10.86-9.43-10.86-15.17S217.09,103,224.1,98.91c14.36-8.29,37.74-8.29,52.11,0,7,4,10.85,9.43,10.85,15.17s-3.85,11.13-10.85,15.17C269,133.4,259.59,135.47,250.15,135.47Zm0-42.34c-9.35,0-18.71,2.05-25.83,6.16-6.86,4-10.64,9.22-10.64,14.79s3.78,10.83,10.64,14.79c14.24,8.22,37.42,8.22,51.66,0,6.86-4,10.64-9.21,10.64-14.79S282.84,103.26,276,99.3C268.86,95.18,259.51,93.13,250.15,93.13Z" style="fill: rgb(55, 71, 79); transform-origin: 250.15px 114.081px;" id="elo39jfngl8lr" class="animable"></path><path d="M285.49,107.2v4.94c0,5.22-3.46,10.44-10.36,14.42-13.79,8-36.17,8-50,0-6.9-4-10.35-9.2-10.35-14.42V107.2c0,5.22,3.45,10.44,10.35,14.43,13.79,8,36.17,8,50,0C282,117.64,285.49,112.42,285.49,107.2Z" style="fill: rgb(240, 240, 240); transform-origin: 250.135px 119.88px;" id="elcmur0pwm6e4" class="animable"></path><path d="M261,131.56a51.25,51.25,0,0,0,5.4-1.29v-4.94a51.25,51.25,0,0,1-5.4,1.29Z" style="fill: rgb(250, 250, 250); transform-origin: 263.7px 128.445px;" id="ellxwh3wv8xz" class="animable"></path><path d="M283.93,113.2a22.22,22.22,0,0,1-8.8,8.43l-1,.55v4.94c.34-.18.68-.37,1-.56a22.22,22.22,0,0,0,8.8-8.43Z" style="fill: rgb(224, 224, 224); transform-origin: 279.03px 120.16px;" id="elp1qpzumpqrf" class="animable"></path><path d="M250.79,127.59c-9.26.1-18.56-1.89-25.62-6-6.9-4-10.35-9.21-10.35-14.43v4.94c0,5.22,3.45,10.44,10.35,14.42,7.06,4.08,16.36,6.07,25.62,6Z" style="fill: rgb(224, 224, 224); transform-origin: 232.805px 119.841px;" id="elm5uls3g9aw" class="animable"></path><path d="M225.81,126.92a46.41,46.41,0,0,0,15.33,4.94v-4.94A46.41,46.41,0,0,1,225.81,122Z" style="fill: rgb(245, 245, 245); transform-origin: 233.475px 126.93px;" id="elroqxyjcuvfp" class="animable"></path><path d="M286.18,105.37c0-5.33-3.52-10.65-10.55-14.71-14.07-8.13-36.88-8.13-50.95,0-7,4.06-10.56,9.38-10.56,14.71v1.91c0,5.33,3.52,10.65,10.56,14.71,14.07,8.13,36.88,8.13,50.95,0,7-4.06,10.55-9.38,10.55-14.71Z" style="fill: rgb(55, 71, 79); transform-origin: 250.15px 106.325px;" id="elk6zbf01ez4" class="animable"></path><path d="M224.68,120.07c14.07,8.13,36.88,8.13,50.95,0,7-4.07,10.55-9.39,10.55-14.71s-3.52-10.65-10.55-14.71c-14.07-8.13-36.88-8.13-50.95,0-7,4.06-10.56,9.38-10.56,14.71S217.64,116,224.68,120.07Z" style="fill: rgb(69, 90, 100); transform-origin: 250.15px 105.36px;" id="eldlal8zahsh8" class="animable"></path><path d="M237.67,127.53a31.63,31.63,0,0,1-8.2-2.62.72.72,0,0,0-.69,0l-.8.47a.68.68,0,0,0-.29.63v0a2,2,0,0,0,1,1.62,31.38,31.38,0,0,0,8.2,2.63.93.93,0,0,0,.63-.1l.81-.47a.91.91,0,0,0,.46-.82v0A1.37,1.37,0,0,0,237.67,127.53Z" style="fill: rgb(55, 71, 79); transform-origin: 233.238px 127.55px;" id="el8vyggb1z82t" class="animable"></path><path d="M228.67,127.62a31.38,31.38,0,0,0,8.2,2.63.91.91,0,0,0,1.1-.93v0a1.36,1.36,0,0,0-1.1-1.29,31.37,31.37,0,0,1-8.2-2.62c-.55-.27-1,0-1,.6v0A2,2,0,0,0,228.67,127.62Z" style="fill: rgb(69, 90, 100); transform-origin: 232.82px 127.788px;" id="elu383w0f4mbl" class="animable"></path><path d="M283.32,99.9h0c0,4.9-3.24,9.8-9.71,13.54-13,7.47-34,7.47-46.91,0C220.22,109.7,217,104.8,217,99.9s3.24-9.8,9.72-13.54c13-7.48,33.95-7.48,46.91,0C280.08,90.1,283.32,95,283.32,99.9Z" style="fill: rgb(38, 50, 56); transform-origin: 250.16px 99.8963px;" id="el888se2zs8fv" class="animable"></path><path d="M283.32,99.9h0c0,4.9-3.24,9.8-9.71,13.54-13,7.47-34,7.47-46.91,0C220.22,109.7,217,104.8,217,99.9s3.24-9.8,9.72-13.54c13-7.48,33.95-7.48,46.91,0C280.08,90.1,283.32,95,283.32,99.9Z" style="fill: rgb(69, 90, 100); transform-origin: 250.16px 99.8963px;" id="elcz2rvoaa5u4" class="animable"></path><path d="M284.49,101.9l.07-.1c-.31.55-.63,1.1-1,1.64C283.91,102.94,284.2,102.42,284.49,101.9Z" style="fill: rgb(69, 90, 100); transform-origin: 284.06px 102.62px;" id="elbea2ym8w4sd" class="animable"></path><path d="M289.68,82.38a39.31,39.31,0,0,1-5.06,19.34,1.71,1.71,0,0,0-.13.23c-.74,1.11-3.68,4.69-11.89,7.52-9.84,3.39-22.13,1.91-22.13,1.91l-5.95-9.25L230,96.05a10,10,0,0,0,.59-3.59A19.19,19.19,0,0,0,228,83.3c2-3.4,4.94-14.83,26.29-25.18,10.32-5,23.6-2.5,27.1,0h0A39.39,39.39,0,0,1,289.68,82.38Z" style="fill: rgb(69, 90, 100); transform-origin: 258.84px 83.4674px;" id="el8ntmfs9lm1" class="animable"></path><path d="M281.27,58l.08.12h0Z" style="fill: rgb(240, 240, 240); transform-origin: 281.31px 58.06px;" id="elyqx4fdak" class="animable"></path><path d="M284.62,101.72c-.52.84-3.3,4.74-12,7.75-9.84,3.39-22.12,1.9-22.12,1.9l-6-9.24L230,96.06a10.09,10.09,0,0,0,.59-3.6A19.19,19.19,0,0,0,228,83.3c2-3.4,4.93-14.84,26.29-25.17,10.34-5,23.62-2.51,27.11,0a39.53,39.53,0,0,0-64.66,45.31,1.73,1.73,0,0,1,.28.94h0c0,4.9,3.24,9.8,9.72,13.54,13,7.48,33.95,7.48,46.91,0,6.47-3.74,9.71-8.64,9.71-13.54h0a1.87,1.87,0,0,1,.27-.95C284,102.87,284.29,102.3,284.62,101.72Z" style="fill: rgb(240, 240, 240); transform-origin: 247.664px 83.226px;" id="elkk85h97o1d" class="animable"></path><path d="M250.17,43.85A38.32,38.32,0,0,1,277.76,55.5,36.36,36.36,0,0,0,268,54.23a33,33,0,0,0-14.17,3c-18.92,9.15-23.64,19.14-25.91,23.94-.31.66-.58,1.22-.81,1.63l-.29.5.29.5a18.18,18.18,0,0,1,2.48,8.66A9.05,9.05,0,0,1,229,95.7l-.35.9.9.38,14.26,6,5.79,9,.25.4.47.06a62.25,62.25,0,0,0,6.67.33,51.05,51.05,0,0,0,15.89-2.28,31.93,31.93,0,0,0,9.32-4.8c-.52,4.28-3.71,8.3-9.13,11.44-6.12,3.53-14.27,5.47-23,5.47s-16.84-1.94-23-5.47c-5.95-3.44-9.22-7.94-9.22-12.68a2.8,2.8,0,0,0-.43-1.48,38.53,38.53,0,0,1,32.6-59h0m0-1a39.54,39.54,0,0,0-33.45,60.59,1.73,1.73,0,0,1,.28.94c0,4.9,3.24,9.8,9.72,13.54s15,5.61,23.45,5.61,17-1.87,23.46-5.61,9.71-8.64,9.71-13.54h0a1.87,1.87,0,0,1,.27-.95c.36-.56.7-1.13,1-1.71-.52.84-3.3,4.74-12,7.75A49.39,49.39,0,0,1,257,111.7a59.3,59.3,0,0,1-6.55-.33l-6-9.24L230,96.06a10.09,10.09,0,0,0,.59-3.6A19.19,19.19,0,0,0,228,83.3c2-3.4,4.93-14.84,26.29-25.17A31.75,31.75,0,0,1,268,55.23c6.09,0,11.37,1.45,13.38,2.9a39.47,39.47,0,0,0-31.19-15.28Z" style="fill: rgb(224, 224, 224); transform-origin: 247.481px 83.25px;" id="elixr1wvk7sn" class="animable"></path><path d="M215.59,102.13l-2-4.13s3.15,3.11,4.48,4.14a18.25,18.25,0,0,1,3.91,4.52c1,1.72,2.18,3.67,2.18,3.67A57.75,57.75,0,0,1,215.59,102.13Z" style="fill: rgb(69, 90, 100); transform-origin: 218.875px 104.165px;" id="elcnjucoxptv" class="animable"></path><path d="M210.48,93.54c.5,2.19.5,2.46,2.4,4.33,1.34,1.34,2.26,2.08,4.66,4.26a20.48,20.48,0,0,1,3.55,3.89c.69,1,2.08,2.88,2.35,3.33a45.39,45.39,0,0,1-7.85-7.22l-.4-.81c-.49.32-.37,1.18,1.51,2.89a25.44,25.44,0,0,0,4.44,4.53c2.72,2.35,4.33,3.69,4.9,3.12s0-1.71-2.44-5.2-3.33-5-3.33-5Z" style="fill: rgb(55, 71, 79); transform-origin: 218.362px 102.765px;" id="el995ypz8y1nq" class="animable"></path><path d="M208.47,77.83c-1,4,.08,13.1,1,14.88,0,0,2,3.24,8.11,8.54a19.51,19.51,0,0,1,3.71,3.94c.95,1.4,2,3,2.89,4.11,1.43,1.82,1,2.13-.56,1.08a40,40,0,0,1-6.88-6.17l.43,2s5.14,6.37,10.62,9.08,4.94-.81,2.58-3.83c-1.44-1.85-4.17-5.22-6.08-7.56a28.69,28.69,0,0,0-4.71-4.57l-.38-.29a17.6,17.6,0,0,1-6.77-12l-.6-5.26Z" style="fill: rgb(240, 240, 240); transform-origin: 220.07px 97.0448px;" id="elxuya5q9vdri" class="animable"></path><path d="M282.14,104.41c-1.47,3.1-4.31,6-8.53,8.47-11.31,6.52-28.74,7.36-41.6,2.49a36.46,36.46,0,0,1-5.31-2.49,24.32,24.32,0,0,1-6.06-4.8,35.27,35.27,0,0,1-3.93-3.87l.06.32c.08.33.16.69.23,1l.11.54c0,.08,0,.16,0,.25a13.13,13.13,0,0,0,2.25,5.22,22.45,22.45,0,0,0,7.29,6.34c13,7.48,33.95,7.48,46.91,0,6.47-3.74,9.71-8.64,9.71-13.54a1.65,1.65,0,0,1,.28-.94c.33-.54.66-1.09,1-1.64A12.41,12.41,0,0,1,282.14,104.41Z" style="fill: rgb(224, 224, 224); transform-origin: 250.63px 112.625px;" id="elebmbv2i8pzf" class="animable"></path><path d="M214,85.19c-2.49-1.36-4.73-3.43-5.44-5.36a3.29,3.29,0,0,1,2.67-4.41s-.38,2.13-.48,3.68A25.3,25.3,0,0,0,215,83,5.5,5.5,0,0,0,214,85.19Z" style="fill: rgb(250, 250, 250); transform-origin: 211.677px 80.305px;" id="elq64arc8dc4" class="animable"></path><path d="M281.36,58.13c3.91,6-2.64,16.1-9.1,19.69,3.11,1.76,4.68,7.42,3.11,10.93l5,3,4.24,10h0a39.55,39.55,0,0,0-3.26-43.59Z" style="fill: rgb(55, 71, 79); transform-origin: 280.96px 79.94px;" id="elb3s7vzzmivs" class="animable"></path><path d="M224.56,99.69a4.43,4.43,0,0,1-2.23-.67c-3.43-2-6.21-7.86-6.21-13.11,0-3,.92-5.34,2.54-6.27a3.7,3.7,0,0,1,3.84.23c3.43,2,6.21,7.86,6.21,13.11,0,3.06-.93,5.35-2.54,6.28A3.16,3.16,0,0,1,224.56,99.69Zm-4.29-20.13a2.86,2.86,0,0,0-1.43.38c-1.48.86-2.36,3.09-2.36,6,0,5.14,2.7,10.88,6,12.8A3.37,3.37,0,0,0,226,99c1.48-.86,2.36-3.09,2.36-6,0-5.14-2.7-10.88-6-12.8A4.2,4.2,0,0,0,220.27,79.56Z" style="fill: rgb(224, 224, 224); transform-origin: 222.415px 89.4501px;" id="elxvct64sp4ap" class="animable"></path><path d="M271,48.8c-7.29-1.81-20.54-2.08-35.78,11.69l-5.87.37s-8.22,9.57-9.81,18.61c2.1-.61,6.07,1.73,8.2,8.43s-.62,10.29-.62,10.29l15.94,6.35,5.9,9.69s13.2,2.17,23.8-1.89c5.48-2.1,8.64-4.49,10.43-6.31a11.46,11.46,0,0,0,.13-1.65h0s0-.08,0-.11a32.8,32.8,0,0,1-10.76,6.51c-8.69,3.27-22.78,1.94-22.78,1.94l-5.9-9.77-15-5.9a16.93,16.93,0,0,0,.5-7.07,19.81,19.81,0,0,0-2.85-7.21s4.71-15.92,25.83-25.42c12.52-5.64,21.7-3.91,27.54-1A39.28,39.28,0,0,0,271,48.8Z" style="fill: rgb(224, 224, 224); transform-origin: 251.43px 81.3627px;" id="elhw1qrw2zosw" class="animable"></path><g id="elvhjfl8gkbjr"><path d="M225.54,82.08c4.79-10.69,12.93-19,25.24-24.95,10.3-5,19.47-5.48,27.85-2.15a39.85,39.85,0,0,0-6.37-5.36,36.77,36.77,0,0,0-21.93,2c-11.17,4.85-14.76,9.89-14.76,9.89l-6.22.28s-7.63,10-8.9,17a7.38,7.38,0,0,1,2,.51l.3-.66a5.55,5.55,0,0,1,1.66,1l-.38.83A11.77,11.77,0,0,1,225.54,82.08Z" style="opacity: 0.2; transform-origin: 249.54px 65.4339px;" class="animable"></path></g><path d="M216.38,82c-1.23.47-2.16,1.75-2.48,3.73a13.94,13.94,0,0,0,4.48,11.79c1.56,1.27,3.1,1.62,4.33,1.15l1.81-.69c1.23-.46,2.15-1.75,2.48-3.73a14,14,0,0,0-4.48-11.79c-1.56-1.27-3.1-1.62-4.33-1.15Z" style="fill: rgb(0, 255, 136); transform-origin: 220.449px 89.99px;" id="eln1chokd026" class="animable"></path><g id="elzeh28nvafkh"><path d="M216.38,82c-1.23.47-2.16,1.75-2.48,3.73a13.94,13.94,0,0,0,4.48,11.79c1.56,1.27,3.1,1.62,4.33,1.15l1.81-.69c1.23-.46,2.15-1.75,2.48-3.73a14,14,0,0,0-4.48-11.79c-1.56-1.27-3.1-1.62-4.33-1.15Z" style="opacity: 0.2; transform-origin: 220.449px 89.99px;" class="animable"></path></g><path d="M218.38,97.51c1.56,1.27,3.1,1.62,4.33,1.15s2.15-1.75,2.48-3.73a14,14,0,0,0-4.48-11.79c-1.56-1.27-3.1-1.62-4.33-1.15s-2.16,1.75-2.48,3.73A13.94,13.94,0,0,0,218.38,97.51Z" style="fill: rgb(0, 255, 136); transform-origin: 219.544px 90.325px;" id="el3bzf8vbwm17" class="animable"></path><path d="M218.38,97.51c1.56,1.27,3.1,1.62,4.33,1.15s2.15-1.75,2.48-3.73a14,14,0,0,0-4.48-11.79c-1.56-1.27-3.1-1.62-4.33-1.15s-2.16,1.75-2.48,3.73A13.94,13.94,0,0,0,218.38,97.51Z" style="fill: rgb(0, 255, 136); transform-origin: 219.544px 90.325px;" id="el509e1yq9cb3" class="animable"></path><g id="eleerkyjky00l"><path d="M220.71,83.14a6.36,6.36,0,0,0-1.29-.85l-.25-.11-.25-.11a4.08,4.08,0,0,0-1.53-.28h0l.47,2.49.19,1a1.24,1.24,0,0,0-.38.09,2.64,2.64,0,0,0-1.47,2.22,8.3,8.3,0,0,0,2.66,7,2.64,2.64,0,0,0,2.57.68,1.84,1.84,0,0,0,.72-.5h0l.65.71,1.57,1.75a5.73,5.73,0,0,0,.62-1.39c0-.09.05-.18.07-.27s0-.19.06-.29,0-.25.07-.37A13.93,13.93,0,0,0,220.71,83.14Zm2.22,9.68-1.11-1.25c-.22-.26-.28.14-.32.35a1.33,1.33,0,0,1-2.36.9,4.85,4.85,0,0,1-1.56-4.09,1.59,1.59,0,0,1,.86-1.3,2.55,2.55,0,0,1,.54-.06,2,2,0,0,1,1,.46c.19.16.5.29.3-.78s-.39-2.19-.39-2.19a5.3,5.3,0,0,1,.51.36,9.91,9.91,0,0,1,3.19,8.32Z" style="fill: rgb(255, 255, 255); opacity: 0.3; transform-origin: 220.711px 89.5099px;" class="animable"></path></g><g id="eln2yltdm8tn"><path d="M218.57,83.82a.38.38,0,0,0,.37.1.42.42,0,0,0,.22-.33,1.23,1.23,0,0,0-.39-1,.35.35,0,0,0-.38-.1.37.37,0,0,0-.21.32A1.22,1.22,0,0,0,218.57,83.82Z" style="fill: rgb(255, 255, 255); opacity: 0.3; transform-origin: 218.669px 83.2017px;" class="animable"></path></g><g id="el5ryhyn9hnjl"><path d="M222,86.47a.39.39,0,0,0,.38.1.36.36,0,0,0,.21-.32,1.18,1.18,0,0,0-.39-1,.37.37,0,0,0-.37-.1.38.38,0,0,0-.22.33A1.23,1.23,0,0,0,222,86.47Z" style="fill: rgb(255, 255, 255); opacity: 0.3; transform-origin: 222.101px 85.8599px;" class="animable"></path></g><g id="elovxfgai05o"><path d="M224.18,91.46a.33.33,0,0,0,.59-.22,1.21,1.21,0,0,0-.39-1,.38.38,0,0,0-.37-.1.38.38,0,0,0-.22.33A1.23,1.23,0,0,0,224.18,91.46Z" style="fill: rgb(255, 255, 255); opacity: 0.3; transform-origin: 224.281px 90.8571px;" class="animable"></path></g><g id="eltbiqxx2lpuh"><path d="M224,95.83a.39.39,0,0,0,.38.1.38.38,0,0,0,.22-.32,1.24,1.24,0,0,0-.39-1,.39.39,0,0,0-.38-.1.38.38,0,0,0-.22.33A1.23,1.23,0,0,0,224,95.83Z" style="fill: rgb(255, 255, 255); opacity: 0.3; transform-origin: 224.105px 95.22px;" class="animable"></path></g><path d="M229.37,103.37c-1.66-.16-4,3.47-1.49,6.2Z" style="fill: rgb(224, 224, 224); transform-origin: 228.074px 106.467px;" id="eluf7r92il5vr" class="animable"></path><path d="M228.05,110l-.32-.22c-2-1.46-5.51-6.19-5.08-7.81a1.18,1.18,0,0,1,.64-.84c.92-.42,2.66.28,6.2,2l.18.09Zm-4.14-8.47a.93.93,0,0,0-.4.07.65.65,0,0,0-.36.5c-.31,1.16,2.42,5.29,4.58,7l1.34-5.61C226.84,102.42,224.9,101.53,223.91,101.53Z" style="fill: rgb(224, 224, 224); transform-origin: 226.142px 105.506px;" id="el2vpk0n3s0zz" class="animable"></path><path d="M224.63,102.59a.43.43,0,0,1-.47.38.41.41,0,0,1-.37-.46.42.42,0,0,1,.46-.38A.42.42,0,0,1,224.63,102.59Z" style="fill: rgb(224, 224, 224); transform-origin: 224.209px 102.55px;" id="el05m1kaxl8vdr" class="animable"></path><path d="M237,107.47a46,46,0,0,1-6.68-2.83,1.17,1.17,0,0,0-1.12-.09l-1.32.72a1.14,1.14,0,0,0-.51,1v.06a3.25,3.25,0,0,0,1.53,2.68,47.48,47.48,0,0,0,8.1,3.29Z" style="fill: rgb(55, 71, 79); transform-origin: 232.184px 108.374px;" id="ely2nvmnedwxf" class="animable"></path><path d="M237,108.62a47.15,47.15,0,0,1-8-3.26c-.88-.46-1.6-.07-1.63.93v.06a3.25,3.25,0,0,0,1.53,2.68,47.48,47.48,0,0,0,8.1,3.29Z" style="fill: rgb(69, 90, 100); transform-origin: 232.185px 108.744px;" id="ely6qmt2mfisr" class="animable"></path><path d="M228.08,106.64a2,2,0,0,0,.84,1.62c.47.26.84,0,.84-.64a2,2,0,0,0-.84-1.61C228.45,105.74,228.08,106,228.08,106.64Z" style="fill: rgb(55, 71, 79); transform-origin: 228.92px 107.132px;" id="elvklerowrz5" class="animable"></path><polygon points="236.57 107.86 236.11 112.89 240.6 112.16 241.05 107.24 236.57 107.86" style="fill: rgb(240, 240, 240); transform-origin: 238.58px 110.065px;" id="el3csvs7egirm" class="animable"></polygon><path d="M235.9,113.11l.5-5.42,4.86-.67-.48,5.3Zm.85-5.09-.43,4.64,4.11-.66.41-4.54Z" style="fill: rgb(224, 224, 224); transform-origin: 238.58px 110.065px;" id="el6s7sc0g5g7" class="animable"></path><polygon points="241.26 107.02 238.09 106.07 236.4 107.69 241.26 107.02" style="fill: rgb(224, 224, 224); transform-origin: 238.83px 106.88px;" id="eloubbd27ybw" class="animable"></polygon><polygon points="235.96 112.45 234.41 111.94 234.56 111.11 236.04 111.58 235.96 112.45" style="fill: rgb(0, 255, 136); transform-origin: 235.225px 111.78px;" id="el0x6i07f5gitb" class="animable"></polygon><polygon points="236.27 109.06 234.72 108.54 234.87 107.71 236.35 108.19 236.27 109.06" style="fill: rgb(0, 255, 136); transform-origin: 235.535px 108.385px;" id="elbblpdux1rfo" class="animable"></polygon><path d="M231.43,104.77h0c-.3-.1-1.68-.77-2.07-1a.31.31,0,0,0-.25,0,.67.67,0,0,0-.45.41.91.91,0,0,0-.06.56.3.3,0,0,0,.17.22,18,18,0,0,0,2.17,1H231a.62.62,0,0,0,.84-.61A.65.65,0,0,0,231.43,104.77Z" style="fill: rgb(0, 255, 136); transform-origin: 230.211px 104.872px;" id="ell2fss8xdoo" class="animable"></path><g id="eloo40nsmln2"><path d="M231.43,104.77h0c-.3-.1-1.68-.77-2.07-1a.31.31,0,0,0-.25,0,.67.67,0,0,0-.45.41.91.91,0,0,0-.06.56.3.3,0,0,0,.17.22,18,18,0,0,0,2.17,1H231a.62.62,0,0,0,.84-.61A.65.65,0,0,0,231.43,104.77Z" style="fill: rgb(255, 255, 255); opacity: 0.3; transform-origin: 230.211px 104.872px;" class="animable"></path></g><path d="M231,106h0a.62.62,0,0,0,.83-.47c-.12.27-.44.31-.84.17a11.59,11.59,0,0,1-1.77-.84.63.63,0,0,1-.27-1,.71.71,0,0,0-.29.34.91.91,0,0,0-.06.56.3.3,0,0,0,.17.22,18,18,0,0,0,2.17,1Z" style="fill: rgb(0, 255, 136); transform-origin: 230.205px 104.95px;" id="eltavc48fe5w" class="animable"></path><path d="M229.07,81c0,.12-.11.24-.16.35-.37.79-.67,1.43-.95,1.92a19.16,19.16,0,0,1,2.61,9.16,10.12,10.12,0,0,1-.59,3.6l1.73.72.34.14a9.47,9.47,0,0,0,1-4.68A18.27,18.27,0,0,0,229.07,81Z" style="fill: rgb(38, 50, 56); transform-origin: 230.51px 88.945px;" id="el45zgc0nhvc" class="animable"></path><g id="elc0m64ll10ga"><path d="M289.67,82.38a40,40,0,0,1-.86,8.25,39.51,39.51,0,0,1-2.48,7.67,41.35,41.35,0,0,0-5-39c-6.61-4-20.89-3.23-29.41,0,.74-.39,1.5-.77,2.29-1.15,10.34-5,23.62-2.51,27.11,0A39.34,39.34,0,0,1,289.67,82.38Z" style="fill: rgb(250, 250, 250); opacity: 0.3; transform-origin: 270.795px 76.7801px;" class="animable"></path></g><g id="elaalrq3hrhej"><path d="M284.44,71.66c-.73-3.35-2-7.27-4.63-9.59-2.84-2.48-7.88-4.6-11.65-3.25a2.87,2.87,0,0,0-1.43,1,3.13,3.13,0,0,0-.14,2.65,12.6,12.6,0,0,0,.77,2A36.84,36.84,0,0,0,271,69.89c4.45,6.08,8.2,12.94,9.08,20.43.23,2,.26,4.08.67,6.07a2.43,2.43,0,0,0,.73,1.47c1.62,1.23,3-2.37,3.22-3.35C286.82,85.9,286,79.23,284.44,71.66Zm-4.09,28.2a1.13,1.13,0,0,0-.22.11,1.52,1.52,0,0,0-.66,1.07.91.91,0,0,0,0,.33,1.05,1.05,0,0,0,.17.29,1.63,1.63,0,0,0,.81.52,1.32,1.32,0,0,0,1.47-1.2A1.1,1.1,0,0,0,280.35,99.86Z" style="fill: rgb(250, 250, 250); opacity: 0.2; transform-origin: 276.17px 80.2943px;" class="animable"></path></g><g id="ely3pnd9uuia7"><path d="M241.93,70.11c-2.4-.93-6.2,3.23-7.53,5.93a13.71,13.71,0,0,0-1.15,6.61,7.24,7.24,0,0,0,.53,2.42c.59,1.43,2.06,2.78,3.69,1.91a4.74,4.74,0,0,0,1.67-1.77C240.64,82.86,246.54,71.9,241.93,70.11Zm4.54-3.79a2.15,2.15,0,0,0-2.8,1.68,1.66,1.66,0,0,0,.86,1.54,2.26,2.26,0,0,0,2.31-.46C247.63,68.21,247.76,66.77,246.47,66.32Z" style="fill: rgb(250, 250, 250); opacity: 0.2; transform-origin: 240.325px 76.7321px;" class="animable"></path></g></g></g></g></g><defs>     <filter id="active" height="200%">         <feMorphology in="SourceAlpha" result="DILATED" operator="dilate" radius="2"></feMorphology>                <feFlood flood-color="#32DFEC" flood-opacity="1" result="PINK"></feFlood>        <feComposite in="PINK" in2="DILATED" operator="in" result="OUTLINE"></feComposite>        <feMerge>            <feMergeNode in="OUTLINE"></feMergeNode>            <feMergeNode in="SourceGraphic"></feMergeNode>        </feMerge>    </filter>    <filter id="hover" height="200%">        <feMorphology in="SourceAlpha" result="DILATED" operator="dilate" radius="2"></feMorphology>                <feFlood flood-color="#ff0000" flood-opacity="0.5" result="PINK"></feFlood>        <feComposite in="PINK" in2="DILATED" operator="in" result="OUTLINE"></feComposite>        <feMerge>            <feMergeNode in="OUTLINE"></feMergeNode>            <feMergeNode in="SourceGraphic"></feMergeNode>        </feMerge>            <feColorMatrix type="matrix" values="0   0   0   0   0                0   1   0   0   0                0   0   0   0   0                0   0   0   1   0 "></feColorMatrix>    </filter></defs></svg>